<svg xmlns="http://www.w3.org/2000/svg" xmlns:xlink="http://www.w3.org/1999/xlink" id="Capa_1" x="0px" y="0px" viewBox="0 0 467.7 183.7" style="enable-background:new 0 0 467.7 183.7;" xml:space="preserve"><style type="text/css">	.st0{fill:#FCDC3E;}	.st1{fill:#E1251B;}	.st2{fill:#722282;}	.st3{fill:#1D1E1C;}	.st4{fill:#1E1E1C;}</style><path class="st0" d="M136.1,45.3c-0.7,0-1.4,0-2.1,0.1c-0.4,0-0.7,0-1.1,0.1l-0.4,0c-0.7,0.1-1.3,0.1-2,0.2 c-0.4,0.1-0.8,0.1-1.1,0.2c-0.1,0-0.2,0-0.3,0.1c-0.4,0.1-0.9,0.1-1.3,0.2l-0.4,0.1c-0.1,0-0.1,0-0.2,0c-0.3,0.1-0.6,0.1-0.9,0.2 c-0.2,0-0.4,0.1-0.5,0.1c-0.3,0.1-0.5,0.1-0.8,0.2l-0.2,0c-0.6,0.1-1.1,0.3-1.7,0.5c-0.3,0.1-0.7,0.2-1,0.3c-0.3,0.1-0.7,0.2-1,0.3 c-0.2,0.1-0.5,0.2-0.7,0.3l-1.2,0.6l-0.1,0.7c-1,4.9-2.9,9.6-5.7,13.8l-0.7,1.1l1,0.9c2.3,2.1,4.4,4.3,6.4,6.6l0.4,0.5h30.2v4.5H124 l1.5,2.3c6.8,10.7,10.4,23.1,10.4,35.9c0,5.2-0.6,10.4-1.8,15.3l-0.4,1.8h2.4c24,0,43.5-19.5,43.5-43.5S160.1,45.3,136.1,45.3z"></path><path class="st1" d="M79.9,4.2C59.4,4.2,42.6,21,42.6,41.5c0,3.1,0.4,6.3,1.2,9.3l0.5,2.1l2.1-0.7c7.1-2.5,14.6-3.8,22.3-3.8 c11.3,0,22.4,2.9,32.2,8.3c1.9,1,3.6,2.1,5.2,3.2c0.8,0.6,1.7,1.2,2.6,1.8l1.7,1.3l1.2-1.9c1.4-2.2,2.5-4.5,3.4-6.9 c1-2.8,1.7-5.7,2-8.6c0.2-1.4,0.2-2.7,0.2-4.2C117.2,21,100.5,4.2,79.9,4.2z M93.3,26.3v3.5H66.6v-3.5H93.3z"></path><path class="st2" d="M112.3,67.5c-1.6-1.5-3.2-2.8-4.9-4c-1.1-0.8-2.2-1.6-3.3-2.3c-1.8-1.2-3.7-2.3-5.5-3.2 c-9.2-4.8-19.5-7.4-30-7.4c-7.4,0-14.7,1.2-21.6,3.7c-2,0.7-3.9,1.5-5.9,2.4C18.7,67.2,4.1,90.2,4.1,115.1c0,35.6,29,64.6,64.5,64.6 c27.2,0,51.6-17.2,60.8-42.8c0.7-2,1.3-4,1.9-6.1c1.3-5.1,1.9-10.3,1.9-15.6C133.2,97,125.6,79.7,112.3,67.5z M89.4,89.6v3.5H48 v-3.5H89.4z"></path><g>	<rect x="64.6" y="24.2" class="st1" width="30.6" height="7.5"></rect></g><path class="st3" d="M136.1,40.5c-5.1,0-10.1,0.8-14.7,2.3c0-0.5,0-0.9,0-1.4C121.4,18.6,102.8,0,79.9,0C57.1,0,38.5,18.6,38.5,41.4 c0,3.9,0.5,7.6,1.5,11.1C16.4,63.5,0,87.3,0,115c0,37.9,30.8,68.7,68.7,68.7c30.3,0,56-19.7,65.2-46.9c0.7,0,1.5,0.1,2.2,0.1 c26.6,0,48.2-21.6,48.2-48.1C184.3,62.1,162.7,40.5,136.1,40.5z M79.9,6.1c19.5,0,35.3,15.8,35.3,35.3c0,1.3-0.1,2.7-0.2,3.9 c-0.3,2.8-1,5.6-1.9,8.1c-0.8,2.3-1.9,4.5-3.2,6.5c-0.9-0.7-1.8-1.3-2.7-1.9c-1.7-1.2-3.5-2.3-5.4-3.3c-9.8-5.5-21.2-8.6-33.2-8.6 c-8,0-15.8,1.4-22.9,3.9c-0.7-2.8-1.1-5.8-1.1-8.8C44.7,22,60.4,6.1,79.9,6.1z M129.4,130.1c-0.5,2-1.1,4-1.8,5.9 c-8.6,24.2-31.8,41.5-58.9,41.5c-34.5,0-62.5-28-62.5-62.6c0-25,14.7-46.6,36-56.6c1.8-0.9,3.7-1.7,5.7-2.3 c6.5-2.3,13.6-3.6,20.9-3.6c10.5,0,20.4,2.6,29.1,7.2c1.8,1,3.6,2,5.3,3.1c1.1,0.7,2.1,1.5,3.2,2.2c1.6,1.2,3.2,2.5,4.7,3.9 c12.5,11.4,20.3,27.9,20.3,46.1C131.2,120.2,130.6,125.3,129.4,130.1z M136.1,130.7h-0.5c1.2-5,1.8-10.3,1.8-15.7 c0-13.5-3.9-26.1-10.7-36.7h25.5v-7.5h-31.1c-2-2.4-4.2-4.7-6.5-6.8c2.8-4.3,4.8-9.2,5.9-14.4c0,0,0.1,0,0.1-0.1 c0.3-0.1,0.6-0.2,1-0.4c0.3-0.1,0.6-0.2,1-0.3c0.3-0.1,0.7-0.2,1-0.3c0.5-0.2,1.1-0.3,1.6-0.5c0.3-0.1,0.6-0.2,0.9-0.2 c0.2,0,0.3-0.1,0.5-0.1c0.3-0.1,0.6-0.1,0.9-0.2c0.1,0,0.2,0,0.3-0.1c0.1,0,0.2,0,0.3-0.1c0.4-0.1,0.9-0.2,1.3-0.2 c0.1,0,0.2,0,0.2,0c0.4-0.1,0.8-0.1,1.1-0.2c0.6-0.1,1.3-0.1,1.9-0.2c0.1,0,0.3,0,0.4,0c0.3,0,0.7-0.1,1-0.1c0.7,0,1.3,0,2,0 c23.2,0,42,18.8,42,42C178.1,111.9,159.3,130.7,136.1,130.7z"></path><rect x="64.6" y="24.2" class="st3" width="30.6" height="7.5"></rect><rect x="46" y="87.5" class="st3" width="45.3" height="7.5"></rect><g>	<g>		<path class="st4" d="M219.2,33.3h6.9h7l13.1,57.7h-5.7h-5.7l-2.3-12.5h-12.6l-2.4,12.5h-5.7h-5.7L219.2,33.3z M221.5,70h9.5   l-4.7-25.9h0L221.5,70z"></path>		<path class="st4" d="M254.9,33.3h5.9h9.7c7.4,0,12.7,1.5,15.9,4.4c3.2,2.9,4.7,7.8,4.7,14.7v16.2c0,8.7-1.4,14.6-4.2,17.7   c-2.8,3.2-8.1,4.7-15.8,4.7h-10.3h-5.9V33.3z M266.7,82.4h3.1c3.7,0,6.2-0.8,7.5-2.3c1.3-1.5,1.9-4.4,1.9-8.8V52.3   c0-3.9-0.7-6.6-2.1-8.1c-1.4-1.5-4.1-2.2-7.9-2.2h-2.5V82.4z"></path>		<path class="st4" d="M300.6,33.3h5.9h5.9v57.7h-5.9h-5.9V33.3z"></path>		<path class="st4" d="M357.1,71.4v1.7c0.1,6.8-1.1,11.6-3.8,14.5c-2.6,2.9-7.1,4.3-13.3,4.3c-6.6,0-11.3-1.6-14-4.7   c-2.7-3.1-4.1-8.5-4.1-16.1V53.4c0-7.7,1.4-13.1,4.1-16.2c2.7-3.1,7.4-4.7,14-4.7c5.8,0,10,1.5,12.8,4.4c2.6,2.7,3.9,6.8,3.9,12.2   v1.1v1.7H345v-1.7c0.1-3-0.3-5.2-1.2-6.7c-0.8-1.5-2.1-2.2-3.8-2.2c-2.2,0-3.8,0.9-4.8,2.6c-1,1.7-1.5,4.5-1.5,8.3v17.8   c0,5,0.5,8.5,1.4,10.5c0.9,2,2.5,2.9,4.9,2.9c1.8,0,3.2-0.8,4.1-2.5c0.9-1.7,1.3-4.2,1.2-7.6v-1.7H357.1z"></path>		<path class="st4" d="M376.8,33.3h6.9h7l13.1,57.7h-5.7h-5.7l-2.3-12.5h-12.6l-2.4,12.5h-5.7h-5.7L376.8,33.3z M379.1,70h9.5   l-4.7-25.9h0L379.1,70z"></path>		<path class="st4" d="M412.4,91.1V33.3h28.8v4.3v4.3h-17v15.3h16.5v4.3v4.3h-16.5v16.7h17.4v4.3v4.3H412.4z"></path>	</g>	<g>		<path class="st4" d="M208.7,105.9h3.7l4.8,20.7h-3l-1-4.7h-5.5l-1,4.7h-2.8L208.7,105.9z M208.2,119.5h4.5l-2.2-11L208.2,119.5z"></path>		<path class="st4" d="M221.5,122.2v0.5l0,0.6c0.2,1.1,0.8,1.6,1.8,1.5c1.2,0,1.8-0.6,1.9-1.7c0-0.4-0.1-0.7-0.3-1   c-0.3-0.4-0.6-0.7-1-1.1l-1.3-1l-1.4-1.1c-0.6-0.5-1.1-1-1.4-1.4c-0.4-0.5-0.5-1.2-0.5-2.1c0-2.4,1.4-3.6,4.2-3.6   c0.7,0,1.4,0.1,2,0.3c1.2,0.4,1.9,1.2,2.1,2.6l0,1.1v0.5h-2.7v-0.5v-0.5c-0.1-0.9-0.6-1.4-1.5-1.5c-1,0-1.4,0.5-1.5,1.5   c0,0.4,0.1,0.7,0.2,0.9c0.2,0.3,0.6,0.7,1,1l1.7,1.2c1.5,1,2.3,1.9,2.7,2.6c0.2,0.5,0.3,1,0.3,1.6c0,1.3-0.5,2.3-1.3,3   c-0.8,0.7-1.8,1-3.2,1c-2.7,0-4.2-1.2-4.5-3.4l0-0.7v-0.5H221.5z"></path>		<path class="st4" d="M230.4,117.7c0-1.5,0.2-2.6,0.5-3.4c0.5-1.1,1.3-1.8,2.5-2.2c0.6-0.2,1.1-0.2,1.8-0.2c0.6,0,1.2,0.1,1.8,0.2   c0.7,0.2,1.3,0.6,1.8,1.1c0.8,0.9,1.1,2.4,1.2,4.5v3.6c0,1.9-0.3,3.3-0.9,4.1c-0.8,1-2,1.6-3.7,1.5c-2.8,0-4.3-1.1-4.6-3.5   c-0.1-0.6-0.1-1.3-0.1-2.1V117.7z M233,121.3l0,1.4c0.1,1.5,0.8,2.2,2,2.2c0.9,0,1.4-0.4,1.7-1.3c0.2-0.5,0.2-1.2,0.2-2.3v-3.8   c0-2.4-0.7-3.6-2-3.5c-1.2,0-1.9,0.7-2,2.2l-0.1,1.4V121.3z"></path>		<path class="st4" d="M242.7,117.1c0-1.9,0.3-3.2,0.9-3.9c0.7-0.9,2-1.3,3.7-1.4c2.8,0,4.2,1.2,4.2,3.5v0.8v0.4h-2.7v-0.4l0-0.7   c-0.1-1.1-0.6-1.6-1.6-1.6c-1.2,0-1.8,0.6-1.9,2l0,1.1v4.6l0,1.5c0,1.2,0.7,1.9,1.8,1.9c1.2,0,1.8-0.7,1.8-2.2V122h2.7v0.7   c0,2.8-1.5,4.2-4.4,4.2c-0.9,0-1.7-0.1-2.3-0.4c-1.5-0.5-2.3-2.1-2.3-4.8V117.1z"></path>		<path class="st4" d="M257.1,105.8v2.7h-2.9v-2.7H257.1z M254.3,112.1h2.7v14.4h-2.7V112.1z"></path>		<path class="st4" d="M260.3,114.7c0.1-0.6,0.4-1.1,0.8-1.5s0.9-0.8,1.5-0.9c0.7-0.2,1.4-0.3,2.1-0.3c0.9,0,1.6,0.1,2.3,0.4   c0.9,0.3,1.5,0.9,1.9,1.9c0.2,0.5,0.3,1.4,0.3,2.7v9.8h-2.7V125c-0.5,0.7-0.9,1.2-1.4,1.4c-0.5,0.3-1.2,0.4-1.9,0.4   c-0.5,0-1-0.1-1.4-0.2c-1.4-0.5-2-1.7-2-3.8c0-0.9,0.1-1.7,0.3-2.3c0.3-1.2,1.2-2,2.8-2.4c0.6-0.2,1.3-0.3,1.9-0.3l1.8-0.1V116   c0-1.4-0.6-2.1-1.8-2.1c-0.7,0-1.2,0.2-1.5,0.7c-0.2,0.3-0.4,0.9-0.4,1.7h-2.7C260.2,115.6,260.2,115.1,260.3,114.7z M266.6,119.7   h-0.8c-2.2,0.1-3.3,1.1-3.3,3c0,1.4,0.5,2.1,1.6,2.1c0.9,0,1.6-0.5,2.1-1.5c0.2-0.4,0.3-0.8,0.3-1.2l0-1.1V119.7z"></path>		<path class="st4" d="M272.2,117.1c0-1.9,0.3-3.2,0.9-3.9c0.7-0.9,2-1.3,3.7-1.4c2.8,0,4.2,1.2,4.2,3.5v0.8v0.4h-2.7v-0.4l0-0.7   c-0.1-1.1-0.6-1.6-1.6-1.6c-1.2,0-1.8,0.6-1.9,2l0,1.1v4.6l0,1.5c0,1.2,0.7,1.9,1.8,1.9c1.2,0,1.8-0.7,1.8-2.2V122h2.7v0.7   c0,2.8-1.5,4.2-4.4,4.2c-0.9,0-1.7-0.1-2.3-0.4c-1.5-0.5-2.3-2.1-2.3-4.8V117.1z"></path>		<path class="st4" d="M286.6,105.8v2.7h-2.9v-2.7H286.6z M283.8,112.1h2.7v14.4h-2.7V112.1z"></path>		<path class="st4" d="M289.4,117.7c0-1.5,0.2-2.6,0.5-3.4c0.5-1.1,1.3-1.8,2.5-2.2c0.6-0.2,1.1-0.2,1.8-0.2c0.6,0,1.2,0.1,1.8,0.2   c0.7,0.2,1.3,0.6,1.8,1.1c0.8,0.9,1.1,2.4,1.2,4.5v3.6c0,1.9-0.3,3.3-0.9,4.1c-0.8,1-2,1.6-3.7,1.5c-2.8,0-4.3-1.1-4.6-3.5   c-0.1-0.6-0.1-1.3-0.1-2.1V117.7z M292,121.3l0,1.4c0.1,1.5,0.8,2.2,2,2.2c0.9,0,1.4-0.4,1.7-1.3c0.2-0.5,0.2-1.2,0.2-2.3v-3.8   c0-2.4-0.7-3.6-2-3.5c-1.2,0-1.9,0.7-2,2.2l-0.1,1.4V121.3z M294.1,105.8h3.2l-2.7,4.5h-2.2L294.1,105.8z"></path>		<path class="st4" d="M301.6,112.1h2.7v1.3c0.8-1,1.9-1.6,3.3-1.6c0.6,0,1.1,0.1,1.6,0.3c1.1,0.5,1.7,1.4,1.8,2.7l0,1.9v9.8h-2.7   v-9.1l0-1.5c0-1.4-0.7-2.1-1.9-2.1c-0.9,0-1.5,0.4-1.8,1.1c-0.2,0.4-0.3,0.8-0.3,1.3c0,0.5-0.1,0.9,0,1.4v8.9h-2.7V112.1z"></path>		<path class="st4" d="M329.9,105.8v20.7h-2.7v-1.3c-1,1.1-2,1.6-3.1,1.6c-0.9,0-1.6-0.2-2.2-0.7c-0.6-0.5-1-1.2-1.2-2   c-0.1-0.7-0.2-1.4-0.2-2.2v-4.8c0-3.5,1.2-5.3,3.8-5.3c0.9,0,1.7,0.2,2.3,0.7c0.2,0.1,0.4,0.4,0.7,0.6v-7.3H329.9z M323.2,121.5   c0,0.7,0,1.3,0.1,1.6c0.1,1.2,0.7,1.7,1.8,1.7c0.6,0,1.2-0.2,1.5-0.7c0.4-0.5,0.7-1.6,0.7-3.3v-4.2c0-0.5,0-1-0.1-1.4   c-0.1-0.4-0.3-0.8-0.6-1c-0.3-0.3-0.7-0.4-1.2-0.4c-1.3,0-1.9,0.7-2.1,2.1c-0.1,0.5-0.1,1-0.1,1.7V121.5z"></path>		<path class="st4" d="M335.2,121.9c0,1,0.1,1.7,0.2,2.1c0.3,0.6,0.8,0.9,1.7,0.9c1.2,0,1.9-0.5,2-1.6l0.1-0.6v-0.3h2.7v0.3l0,1   c-0.2,2.2-1.8,3.3-4.7,3.3c-0.7,0-1.3-0.1-1.9-0.2c-0.8-0.2-1.4-0.6-1.8-1.1c-0.6-0.7-0.9-2-0.9-3.8v-4.1c0-2,0.3-3.4,0.8-4.2   c0.8-1,2.1-1.6,3.9-1.6c2.9,0,4.4,1.2,4.6,3.6c0,0.5,0.1,1,0.1,1.6v3.2h-6.7V121.9z M335.2,118.3h4v-1.7c0-1.8-0.7-2.7-2-2.7   c-0.9,0-1.4,0.4-1.7,1.1c-0.2,0.4-0.3,1.1-0.3,2.1V118.3z"></path>		<path class="st4" d="M351.6,105.9h2.8v13.8l0,1.8c0.1,2,1,3,2.8,3c1.8,0,2.8-0.9,3-2.8c0.1-0.7,0.1-1.3,0.1-2v-13.8h2.8v14   c0,1.1,0,2-0.1,2.7c-0.1,1-0.4,1.8-0.9,2.4c-1,1.2-2.6,1.9-4.8,1.9c-2.2,0-3.8-0.6-4.8-1.9c-0.5-0.7-0.9-1.5-0.9-2.5   c0-0.5-0.1-1.4-0.1-2.7V105.9z"></path>		<path class="st4" d="M369,122.2v0.5l0,0.6c0.2,1.1,0.8,1.6,1.8,1.5c1.2,0,1.8-0.6,1.9-1.7c0-0.4-0.1-0.7-0.3-1   c-0.3-0.4-0.6-0.7-1-1.1l-1.3-1l-1.4-1.1c-0.6-0.5-1.1-1-1.4-1.4c-0.4-0.5-0.5-1.2-0.5-2.1c0-2.4,1.4-3.6,4.2-3.6   c0.7,0,1.4,0.1,2,0.3c1.2,0.4,1.9,1.2,2.1,2.6l0,1.1v0.5h-2.7v-0.5v-0.5c-0.1-0.9-0.6-1.4-1.5-1.5c-1,0-1.4,0.5-1.5,1.5   c0,0.4,0.1,0.7,0.2,0.9c0.2,0.3,0.6,0.7,1,1l1.7,1.2c1.5,1,2.3,1.9,2.7,2.6c0.2,0.5,0.3,1,0.3,1.6c0,1.3-0.5,2.3-1.3,3   c-0.8,0.7-1.8,1-3.2,1c-2.7,0-4.2-1.2-4.5-3.4l0-0.7v-0.5H369z"></path>		<path class="st4" d="M380.5,112.1v9.7c0,1,0.1,1.7,0.2,2c0.3,0.7,0.8,1,1.6,1c0.5,0,1-0.1,1.3-0.4c0.4-0.3,0.7-0.8,0.9-1.5   c0.1-0.4,0.1-0.8,0.1-1.3v-9.6h2.7v14.4h-2.7v-1.3l-0.5,0.6c-0.7,0.7-1.6,1-2.7,1c-1,0-1.8-0.3-2.5-0.9c-0.6-0.5-1-1.4-1-2.5   l0-1.6v-9.8H380.5z"></path>		<path class="st4" d="M390.6,114.7c0.1-0.6,0.4-1.1,0.8-1.5s0.9-0.8,1.5-0.9c0.7-0.2,1.4-0.3,2.1-0.3c0.9,0,1.6,0.1,2.3,0.4   c0.9,0.3,1.5,0.9,1.9,1.9c0.2,0.5,0.3,1.4,0.3,2.7v9.8h-2.7V125c-0.5,0.7-0.9,1.2-1.4,1.4c-0.5,0.3-1.2,0.4-1.9,0.4   c-0.5,0-1-0.1-1.4-0.2c-1.4-0.5-2-1.7-2-3.8c0-0.9,0.1-1.7,0.3-2.3c0.3-1.2,1.2-2,2.8-2.4c0.6-0.2,1.3-0.3,1.9-0.3l1.8-0.1V116   c0-1.4-0.6-2.1-1.8-2.1c-0.7,0-1.2,0.2-1.5,0.7c-0.2,0.3-0.4,0.9-0.4,1.7h-2.7C390.4,115.6,390.5,115.1,390.6,114.7z M396.8,119.7   H396c-2.2,0.1-3.3,1.1-3.3,3c0,1.4,0.5,2.1,1.6,2.1c0.9,0,1.6-0.5,2.1-1.5c0.2-0.4,0.3-0.8,0.3-1.2l0-1.1V119.7z"></path>		<path class="st4" d="M405.2,112.1v1.8c0.4-0.7,0.9-1.2,1.4-1.5c0.4-0.2,0.7-0.3,1.1-0.4l0.9-0.1v2.6l-0.9,0.1   c-1,0.1-1.6,0.5-2,1.2c-0.3,0.6-0.5,1.6-0.5,2.8v8h-2.7v-14.4H405.2z"></path>		<path class="st4" d="M413.5,105.8v2.7h-2.9v-2.7H413.5z M410.7,112.1h2.7v14.4h-2.7V112.1z"></path>		<path class="st4" d="M416.3,117.7c0-1.5,0.2-2.6,0.5-3.4c0.5-1.1,1.3-1.8,2.5-2.2c0.6-0.2,1.1-0.2,1.8-0.2c0.6,0,1.2,0.1,1.8,0.2   c0.7,0.2,1.3,0.6,1.8,1.1c0.8,0.9,1.1,2.4,1.2,4.5v3.6c0,1.9-0.3,3.3-0.9,4.1c-0.8,1-2,1.6-3.7,1.5c-2.8,0-4.3-1.1-4.6-3.5   c-0.1-0.6-0.1-1.3-0.1-2.1V117.7z M418.9,121.3l0,1.4c0.1,1.5,0.8,2.2,2,2.2c0.9,0,1.4-0.4,1.7-1.3c0.2-0.5,0.2-1.2,0.2-2.3v-3.8   c0-2.4-0.7-3.6-2-3.5c-1.2,0-1.9,0.7-2,2.2l-0.1,1.4V121.3z"></path>		<path class="st4" d="M430.8,122.2v0.5l0,0.6c0.2,1.1,0.8,1.6,1.8,1.5c1.2,0,1.8-0.6,1.9-1.7c0-0.4-0.1-0.7-0.3-1   c-0.3-0.4-0.6-0.7-1-1.1l-1.3-1l-1.4-1.1c-0.6-0.5-1.1-1-1.4-1.4c-0.4-0.5-0.5-1.2-0.5-2.1c0-2.4,1.4-3.6,4.2-3.6   c0.7,0,1.4,0.1,2,0.3c1.2,0.4,1.9,1.2,2.1,2.6l0,1.1v0.5h-2.7v-0.5v-0.5c-0.1-0.9-0.6-1.4-1.5-1.5c-1,0-1.4,0.5-1.5,1.5   c0,0.4,0.1,0.7,0.2,0.9c0.2,0.3,0.6,0.7,1,1l1.7,1.2c1.5,1,2.3,1.9,2.7,2.6c0.2,0.5,0.3,1,0.3,1.6c0,1.3-0.5,2.3-1.3,3   c-0.8,0.7-1.8,1-3.2,1c-2.7,0-4.2-1.2-4.5-3.4l0-0.7v-0.5H430.8z"></path>		<path class="st4" d="M455.7,105.8v20.7H453v-1.3c-1,1.1-2,1.6-3.1,1.6c-0.9,0-1.6-0.2-2.2-0.7c-0.6-0.5-1-1.2-1.2-2   c-0.1-0.7-0.2-1.4-0.2-2.2v-4.8c0-3.5,1.2-5.3,3.8-5.3c0.9,0,1.7,0.2,2.3,0.7c0.2,0.1,0.4,0.4,0.7,0.6v-7.3H455.7z M449,121.5   c0,0.7,0,1.3,0.1,1.6c0.1,1.2,0.7,1.7,1.8,1.7c0.6,0,1.2-0.2,1.5-0.7c0.4-0.5,0.7-1.6,0.7-3.3v-4.2c0-0.5,0-1-0.1-1.4   c-0.1-0.4-0.3-0.8-0.6-1c-0.3-0.3-0.7-0.4-1.2-0.4c-1.3,0-1.9,0.7-2.1,2.1c-0.1,0.5-0.1,1-0.1,1.7V121.5z"></path>		<path class="st4" d="M461,121.9c0,1,0.1,1.7,0.2,2.1c0.3,0.6,0.8,0.9,1.7,0.9c1.2,0,1.9-0.5,2-1.6l0.1-0.6v-0.3h2.7v0.3l0,1   c-0.2,2.2-1.8,3.3-4.7,3.3c-0.7,0-1.3-0.1-1.9-0.2c-0.8-0.2-1.4-0.6-1.8-1.1c-0.6-0.7-0.9-2-0.9-3.8v-4.1c0-2,0.3-3.4,0.8-4.2   c0.8-1,2.1-1.6,3.9-1.6c2.9,0,4.4,1.2,4.6,3.6c0,0.5,0.1,1,0.1,1.6v3.2H461V121.9z M461,118.3h4v-1.7c0-1.8-0.7-2.7-2-2.7   c-0.9,0-1.4,0.4-1.7,1.1c-0.2,0.4-0.3,1.1-0.3,2.1V118.3z"></path>		<path class="st4" d="M204.8,137.3h5.2c0.8,0,1.6,0.1,2.3,0.2c2.5,0.4,3.8,2.2,3.8,5.2c0,1.5-0.3,2.7-0.9,3.4   c-0.5,0.6-1.4,1.1-2.8,1.4c1.7,0.2,2.8,0.7,3.4,1.5c0.6,0.9,0.9,2.1,1,3.6c0,0.8-0.1,1.6-0.3,2.4c-0.4,1.3-1.1,2.2-2.3,2.7   c-0.7,0.3-1.9,0.4-3.6,0.4h-5.4V137.3z M207.7,139.6v6.6h2.2c0.6,0,1.2,0,1.6-0.1c1.1-0.2,1.7-1.3,1.7-3.3c0-2.1-1.1-3.1-3.4-3.2   H207.7z M207.7,148.6v7.1h2.2c1.4,0,2.4-0.3,3-0.8c0.6-0.5,0.9-1.5,0.9-2.9c0-1.8-0.7-2.9-2.2-3.2c-0.5-0.1-1-0.1-1.6-0.1H207.7z"></path>		<path class="st4" d="M219.7,146.1c0.1-0.6,0.4-1.1,0.8-1.5s0.9-0.8,1.5-0.9c0.7-0.2,1.4-0.3,2.1-0.3c0.9,0,1.6,0.1,2.3,0.4   c0.9,0.3,1.5,0.9,1.9,1.9c0.2,0.5,0.3,1.4,0.3,2.7v9.8h-2.7v-1.6c-0.5,0.7-0.9,1.2-1.4,1.4c-0.5,0.3-1.2,0.4-1.9,0.4   c-0.5,0-1-0.1-1.4-0.2c-1.4-0.5-2-1.7-2-3.8c0-0.9,0.1-1.7,0.3-2.3c0.3-1.2,1.2-2,2.8-2.4c0.6-0.2,1.3-0.3,1.9-0.3l1.8-0.1v-1.7   c0-1.4-0.6-2.1-1.8-2.1c-0.7,0-1.2,0.2-1.5,0.7c-0.2,0.3-0.4,0.9-0.4,1.7h-2.7C219.5,147.1,219.6,146.6,219.7,146.1z M225.9,151.1   h-0.8c-2.2,0.1-3.3,1.1-3.3,3c0,1.4,0.5,2.1,1.6,2.1c0.9,0,1.6-0.5,2.1-1.5c0.2-0.4,0.3-0.8,0.3-1.2l0-1.1V151.1z"></path>		<path class="st4" d="M231.5,143.6h2.7v1.3c0.8-1,1.9-1.6,3.3-1.6c0.6,0,1.1,0.1,1.6,0.3c1.1,0.5,1.7,1.4,1.8,2.7l0,1.9v9.8h-2.7   v-9.1l0-1.5c0-1.4-0.7-2.1-1.9-2.1c-0.9,0-1.5,0.4-1.8,1.1c-0.2,0.4-0.3,0.8-0.3,1.3c0,0.5-0.1,0.9,0,1.4v8.9h-2.7V143.6z"></path>		<path class="st4" d="M243.8,148.6c0-1.9,0.3-3.2,0.9-3.9c0.7-0.9,2-1.3,3.7-1.4c2.8,0,4.2,1.2,4.2,3.5v0.8v0.4H250v-0.4l0-0.7   c-0.1-1.1-0.6-1.6-1.6-1.6c-1.2,0-1.8,0.6-1.9,2l0,1.1v4.6l0,1.5c0,1.2,0.7,1.9,1.8,1.9c1.2,0,1.8-0.7,1.8-2.2v-0.6h2.7v0.7   c0,2.8-1.5,4.2-4.4,4.2c-0.9,0-1.7-0.1-2.3-0.4c-1.5-0.5-2.3-2.1-2.3-4.8V148.6z"></path>		<path class="st4" d="M255.4,149.1c0-1.5,0.2-2.6,0.5-3.4c0.5-1.1,1.3-1.8,2.5-2.2c0.6-0.2,1.1-0.2,1.8-0.2c0.6,0,1.2,0.1,1.8,0.2   c0.7,0.2,1.3,0.6,1.8,1.1c0.8,0.9,1.1,2.4,1.2,4.5v3.6c0,1.9-0.3,3.3-0.9,4.1c-0.8,1-2,1.6-3.7,1.5c-2.8,0-4.3-1.1-4.6-3.5   c-0.1-0.6-0.1-1.3-0.1-2.1V149.1z M258.1,152.7l0,1.4c0.1,1.5,0.8,2.2,2,2.2c0.9,0,1.4-0.4,1.7-1.3c0.2-0.5,0.2-1.2,0.2-2.3v-3.8   c0-2.4-0.7-3.6-2-3.5c-1.2,0-1.9,0.7-2,2.2l-0.1,1.4V152.7z"></path>		<path class="st4" d="M270,153.6v0.5l0,0.6c0.2,1.1,0.8,1.6,1.8,1.5c1.2,0,1.8-0.6,1.9-1.7c0-0.4-0.1-0.7-0.3-1   c-0.3-0.4-0.6-0.7-1-1.1l-1.3-1l-1.4-1.1c-0.6-0.5-1.1-1-1.4-1.4c-0.4-0.5-0.5-1.2-0.5-2.1c0-2.4,1.4-3.6,4.2-3.6   c0.7,0,1.4,0.1,2,0.3c1.2,0.4,1.9,1.2,2.1,2.6l0,1.1v0.5h-2.7v-0.5v-0.5c-0.1-0.9-0.6-1.4-1.5-1.5c-1,0-1.4,0.5-1.5,1.5   c0,0.4,0.1,0.7,0.2,0.9c0.2,0.3,0.6,0.7,1,1l1.7,1.2c1.5,1,2.3,1.9,2.7,2.6c0.2,0.5,0.3,1,0.3,1.6c0,1.3-0.5,2.3-1.3,3   c-0.8,0.7-1.8,1-3.2,1c-2.7,0-4.2-1.2-4.5-3.4l0-0.7v-0.5H270z"></path>		<path class="st4" d="M279.1,154.6h3l-2.6,6.5h-1.9L279.1,154.6z"></path>		<path class="st4" d="M300.5,142.8l0-1c-0.1-1.7-0.9-2.5-2.4-2.5c-1.4,0-2.2,0.4-2.7,1.3c-0.2,0.4-0.3,0.8-0.4,1.3l0,1.7v8.2   c0,1.5,0.1,2.4,0.4,2.9c0.5,0.9,1.3,1.3,2.4,1.3c1.5,0,2.4-0.9,2.6-2.6l0.1-1.3v-0.7h2.8v0.7l0,1.3c-0.1,1.5-0.5,2.7-1.3,3.6   c-0.5,0.5-1,0.9-1.7,1.1c-0.8,0.3-1.6,0.4-2.5,0.4c-0.8,0-1.5-0.1-2.2-0.2c-2.3-0.5-3.5-2.5-3.5-5.8V144c0-0.9,0-1.7,0.1-2.5   c0.1-0.9,0.4-1.7,0.8-2.3c0.9-1.4,2.5-2.1,4.9-2.1c3.3,0,5.1,1.3,5.3,3.9c0,0.5,0.1,1,0.1,1.6v0.8h-2.8V142.8z"></path>		<path class="st4" d="M307.1,146.1c0.1-0.6,0.4-1.1,0.8-1.5s0.9-0.8,1.5-0.9c0.7-0.2,1.4-0.3,2.1-0.3c0.9,0,1.6,0.1,2.3,0.4   c0.9,0.3,1.5,0.9,1.9,1.9c0.2,0.5,0.3,1.4,0.3,2.7v9.8h-2.7v-1.6c-0.5,0.7-0.9,1.2-1.4,1.4c-0.5,0.3-1.2,0.4-1.9,0.4   c-0.5,0-1-0.1-1.4-0.2c-1.4-0.5-2-1.7-2-3.8c0-0.9,0.1-1.7,0.3-2.3c0.3-1.2,1.2-2,2.8-2.4c0.6-0.2,1.3-0.3,1.9-0.3l1.8-0.1v-1.7   c0-1.4-0.6-2.1-1.8-2.1c-0.7,0-1.2,0.2-1.5,0.7c-0.2,0.3-0.4,0.9-0.4,1.7h-2.7C306.9,147.1,307,146.6,307.1,146.1z M313.3,151.1   h-0.8c-2.2,0.1-3.3,1.1-3.3,3c0,1.4,0.5,2.1,1.6,2.1c0.9,0,1.6-0.5,2.1-1.5c0.2-0.4,0.3-0.8,0.3-1.2l0-1.1V151.1z"></path>		<path class="st4" d="M317.7,161.7c0.7,0,1.1-0.3,1.1-0.8l0-1.1v-16.1h2.7v15.9l0,1.6c-0.1,1.7-1,2.5-2.7,2.6c-0.4,0-1-0.1-1.6-0.2   v-1.8L317.7,161.7z M321.6,137.3v2.7h-2.9v-2.7H321.6z"></path>		<path class="st4" d="M324.9,146.1c0.1-0.6,0.4-1.1,0.8-1.5s0.9-0.8,1.5-0.9c0.7-0.2,1.4-0.3,2.1-0.3c0.9,0,1.6,0.1,2.3,0.4   c0.9,0.3,1.5,0.9,1.9,1.9c0.2,0.5,0.3,1.4,0.3,2.7v9.8h-2.7v-1.6c-0.5,0.7-0.9,1.2-1.4,1.4c-0.5,0.3-1.2,0.4-1.9,0.4   c-0.5,0-1-0.1-1.4-0.2c-1.4-0.5-2-1.7-2-3.8c0-0.9,0.1-1.7,0.3-2.3c0.3-1.2,1.2-2,2.8-2.4c0.6-0.2,1.3-0.3,1.9-0.3l1.8-0.1v-1.7   c0-1.4-0.6-2.1-1.8-2.1c-0.7,0-1.2,0.2-1.5,0.7c-0.2,0.3-0.4,0.9-0.4,1.7h-2.7C324.8,147.1,324.8,146.6,324.9,146.1z M331.1,151.1   h-0.8c-2.2,0.1-3.3,1.1-3.3,3c0,1.4,0.5,2.1,1.6,2.1c0.9,0,1.6-0.5,2.1-1.5c0.2-0.4,0.3-0.8,0.3-1.2l0-1.1V151.1z"></path>		<path class="st4" d="M339,153.6v0.5l0,0.6c0.2,1.1,0.8,1.6,1.8,1.5c1.2,0,1.8-0.6,1.9-1.7c0-0.4-0.1-0.7-0.3-1   c-0.3-0.4-0.6-0.7-1-1.1l-1.3-1l-1.4-1.1c-0.6-0.5-1.1-1-1.4-1.4c-0.4-0.5-0.5-1.2-0.5-2.1c0-2.4,1.4-3.6,4.2-3.6   c0.7,0,1.4,0.1,2,0.3c1.2,0.4,1.9,1.2,2.1,2.6l0,1.1v0.5h-2.7v-0.5v-0.5c-0.1-0.9-0.6-1.4-1.5-1.5c-1,0-1.4,0.5-1.5,1.5   c0,0.4,0.1,0.7,0.2,0.9c0.2,0.3,0.6,0.7,1,1l1.7,1.2c1.5,1,2.3,1.9,2.7,2.6c0.2,0.5,0.3,1,0.3,1.6c0,1.3-0.5,2.3-1.3,3   c-0.8,0.7-1.8,1-3.2,1c-2.7,0-4.2-1.2-4.5-3.4l0-0.7v-0.5H339z"></path>		<path class="st4" d="M356.7,143.6l2.5,10.8l2.6-10.8h2.6l-5.5,19.8h-2.5l1.5-5.1l-3.9-14.7H356.7z"></path>		<path class="st4" d="M376.1,151.1v1.2c0,0.6,0,1.1,0.2,1.6c0.3,1.4,1.2,2.1,2.8,2.1c0.6,0,1.1-0.1,1.6-0.3c1.1-0.4,1.6-1.4,1.7-3   c0-1.1-0.4-1.9-1.1-2.5c-0.5-0.4-1.1-0.8-1.8-1.2l-2.1-1.2c-0.8-0.5-1.5-0.9-2.1-1.4c-1.1-1-1.7-2.4-1.7-4.2c0-2,0.7-3.4,1.9-4.3   c0.9-0.6,2.2-1,3.9-1c2,0,3.5,0.5,4.3,1.4c0.7,0.8,1.1,2.2,1.1,4.4v0.4h-2.8v-0.5l-0.1-1.1c-0.2-1.6-1-2.4-2.5-2.3   c-1.9,0-2.9,1-2.9,2.8c0,1.2,0.6,2.2,1.8,2.9c0.7,0.5,1.6,1,2.5,1.4c0.9,0.5,1.7,0.9,2.3,1.4c1.4,1,2.1,2.6,2.1,4.7   c0,3.8-2.1,5.7-6.1,5.7c-1.7,0-3.1-0.3-4-1.1c-1.1-0.9-1.7-2.1-1.8-3.7l0-1.7v-0.8H376.1z"></path>		<path class="st4" d="M390.3,153.3c0,1,0.1,1.7,0.2,2.1c0.3,0.6,0.8,0.9,1.7,0.9c1.2,0,1.9-0.5,2-1.6l0.1-0.6v-0.3h2.7v0.3l0,1   c-0.2,2.2-1.8,3.3-4.7,3.3c-0.7,0-1.3-0.1-1.9-0.2c-0.8-0.2-1.4-0.6-1.8-1.1c-0.6-0.7-0.9-2-0.9-3.8v-4.1c0-2,0.3-3.4,0.8-4.2   c0.8-1,2.1-1.6,3.9-1.6c2.9,0,4.4,1.2,4.6,3.6c0,0.5,0.1,1,0.1,1.6v3.2h-6.7V153.3z M390.3,149.7h4v-1.7c0-1.8-0.7-2.7-2-2.7   c-0.9,0-1.4,0.4-1.7,1.1c-0.2,0.4-0.3,1.1-0.3,2.1V149.7z"></path>		<path class="st4" d="M405.6,157.2c-0.6,0.6-1.4,0.8-2.4,0.9c-2.1,0-3.3-1.1-3.5-3.3c-0.1-0.7-0.1-1.4-0.1-2.3v-4.2l0-1.5   c0-1.1,0.4-2,1-2.6c0.7-0.6,1.6-0.9,2.6-1c1,0,1.8,0.3,2.6,0.9l0.5,0.5v-1.1h2.7v13.2l0,1.9c0,0.9-0.1,1.6-0.1,2   c-0.1,0.7-0.4,1.3-0.9,1.8c-0.8,0.9-2.1,1.3-3.7,1.3c-2.8,0-4.3-1.4-4.2-4.2v-0.5h2.3v0.6c0,1.4,0.6,2.1,1.9,2   c0.9,0,1.5-0.2,1.8-0.6c0.3-0.4,0.4-1,0.4-1.9v-2.6L405.6,157.2z M402.2,152.4l0,1.3c0,1.6,0.6,2.4,1.9,2.3c1,0,1.6-0.4,1.9-1.1   c0.1-0.3,0.2-0.6,0.2-1.1l0-1.3v-4.2c0-1.2-0.2-2.1-0.7-2.6c-0.3-0.2-0.7-0.4-1.3-0.4c-1.4,0-2,1-2,3V152.4z"></path>		<path class="st4" d="M414.5,143.6v9.7c0,1,0.1,1.7,0.2,2c0.3,0.7,0.8,1,1.6,1c0.5,0,1-0.1,1.3-0.4c0.4-0.3,0.7-0.8,0.9-1.5   c0.1-0.4,0.1-0.8,0.1-1.3v-9.6h2.7V158h-2.7v-1.3l-0.5,0.6c-0.7,0.7-1.6,1-2.7,1c-1,0-1.8-0.3-2.5-0.9c-0.6-0.5-1-1.4-1-2.5l0-1.6   v-9.8H414.5z"></path>		<path class="st4" d="M426.9,143.6v1.8c0.4-0.7,0.9-1.2,1.4-1.5c0.4-0.2,0.7-0.3,1.1-0.4l0.9-0.1v2.6l-0.9,0.1   c-1,0.1-1.6,0.5-2,1.2c-0.3,0.6-0.5,1.6-0.5,2.8v8h-2.7v-14.4H426.9z"></path>		<path class="st4" d="M431.8,149.1c0-1.5,0.2-2.6,0.5-3.4c0.5-1.1,1.3-1.8,2.5-2.2c0.6-0.2,1.1-0.2,1.8-0.2c0.6,0,1.2,0.1,1.8,0.2   c0.7,0.2,1.3,0.6,1.8,1.1c0.8,0.9,1.1,2.4,1.2,4.5v3.6c0,1.9-0.3,3.3-0.9,4.1c-0.8,1-2,1.6-3.7,1.5c-2.8,0-4.3-1.1-4.6-3.5   c-0.1-0.6-0.1-1.3-0.1-2.1V149.1z M434.5,152.7l0,1.4c0.1,1.5,0.8,2.2,2,2.2c0.9,0,1.4-0.4,1.7-1.3c0.2-0.5,0.2-1.2,0.2-2.3v-3.8   c0-2.4-0.7-3.6-2-3.5c-1.2,0-1.9,0.7-2,2.2l-0.1,1.4V152.7z"></path>		<path class="st4" d="M446.4,153.6v0.5l0,0.6c0.2,1.1,0.8,1.6,1.8,1.5c1.2,0,1.8-0.6,1.9-1.7c0-0.4-0.1-0.7-0.3-1   c-0.3-0.4-0.6-0.7-1-1.1l-1.3-1l-1.4-1.1c-0.6-0.5-1.1-1-1.4-1.4c-0.4-0.5-0.5-1.2-0.5-2.1c0-2.4,1.4-3.6,4.2-3.6   c0.7,0,1.4,0.1,2,0.3c1.2,0.4,1.9,1.2,2.1,2.6l0,1.1v0.5h-2.7v-0.5v-0.5c-0.1-0.9-0.6-1.4-1.5-1.5c-1,0-1.4,0.5-1.5,1.5   c0,0.4,0.1,0.7,0.2,0.9c0.2,0.3,0.6,0.7,1,1l1.7,1.2c1.5,1,2.3,1.9,2.7,2.6c0.2,0.5,0.3,1,0.3,1.6c0,1.3-0.5,2.3-1.3,3   c-0.8,0.7-1.8,1-3.2,1c-2.7,0-4.2-1.2-4.5-3.4l0-0.7v-0.5H446.4z"></path>	</g></g></svg>