<svg xmlns="http://www.w3.org/2000/svg" xmlns:xlink="http://www.w3.org/1999/xlink" id="Capa_1" x="0px" y="0px" viewBox="0 0 467.7 183.7" style="enable-background:new 0 0 467.7 183.7;" xml:space="preserve"><style type="text/css">	.st0{fill:#FFFFFF;}</style><path class="st0" d="M178,88.6c0.1,23.3-18.7,42.1-41.9,42.1h-0.5c1.2-5,1.8-10.3,1.8-15.7c0-13.5-3.9-26.1-10.7-36.7h25.5v-7.5 h-31.1c-2-2.4-4.2-4.7-6.5-6.8c2.8-4.3,4.8-9.2,5.9-14.4c0,0,0.1,0,0.1-0.1c0.3-0.1,0.6-0.2,1-0.4c0.3-0.1,0.6-0.2,1-0.3 c0.3-0.1,0.7-0.2,1-0.3c0.5-0.2,1.1-0.3,1.6-0.5c0.3-0.1,0.6-0.2,0.9-0.2c0.2,0,0.3-0.1,0.5-0.1c0.3-0.1,0.6-0.1,0.9-0.2 c0.1,0,0.2,0,0.3-0.1c0.1,0,0.2,0,0.3-0.1c0.4-0.1,0.9-0.2,1.3-0.2c0.1,0,0.2,0,0.2,0c0.4-0.1,0.8-0.1,1.1-0.2 c0.6-0.1,1.3-0.1,1.9-0.2h0.4c0.3,0,0.7-0.1,1-0.1h2C159.2,46.6,178,65.4,178,88.6z"></path><path class="st0" d="M111.1,68.8c-1.5-1.4-3.1-2.7-4.7-3.9c-1.1-0.7-2.1-1.5-3.2-2.2c-1.7-1.1-3.5-2.1-5.3-3.1 c-8.7-4.6-18.6-7.2-29.1-7.2c-7.3,0-14.4,1.3-20.9,3.6c-2,0.6-3.9,1.4-5.7,2.3c-21.3,10-36,31.6-36,56.6c0,34.6,28,62.6,62.5,62.6 c27.1,0,50.3-17.3,58.9-41.5c0.7-1.9,1.3-3.9,1.8-5.9c1.2-4.8,1.8-9.9,2-15.2C131.4,96.7,123.6,80.2,111.1,68.8z M91.3,95H46v-7.5 h45.3V95z"></path><path class="st0" d="M79.9,6.1C60.4,6.1,44.7,22,44.6,41.2c0,3,0.4,6,1.1,8.8c7.1-2.5,14.9-3.9,22.9-3.9c12,0,23.4,3.1,33.2,8.6 c1.9,1,3.7,2.1,5.4,3.3c0.9,0.6,1.8,1.2,2.7,1.9c1.3-2,2.4-4.2,3.2-6.5c0.9-2.5,1.6-5.3,1.9-8.1c0.1-1.2,0.2-2.6,0.2-3.9 C115.2,21.9,99.4,6.1,79.9,6.1z M95.2,31.7H64.6v-7.5h30.6V31.7z"></path><g>	<g>		<path class="st0" d="M219.2,33.3h6.9h7L246.2,91h-5.7h-5.7l-2.3-12.5h-12.6L217.5,91h-5.7h-5.7L219.2,33.3z M221.5,70h9.5   l-4.7-25.9l0,0L221.5,70z"></path>		<path class="st0" d="M254.9,33.3h5.9h9.7c7.4,0,12.7,1.5,15.9,4.4c3.2,2.9,4.7,7.8,4.7,14.7v16.2c0,8.7-1.4,14.6-4.2,17.7   c-2.8,3.2-8.1,4.7-15.8,4.7h-10.3h-5.9L254.9,33.3L254.9,33.3z M266.7,82.4h3.1c3.7,0,6.2-0.8,7.5-2.3s1.9-4.4,1.9-8.8v-19   c0-3.9-0.7-6.6-2.1-8.1c-1.4-1.5-4.1-2.2-7.9-2.2h-2.5V82.4z"></path>		<path class="st0" d="M300.6,33.3h5.9h5.9V91h-5.9h-5.9V33.3z"></path>		<path class="st0" d="M357.1,71.4v1.7c0.1,6.8-1.1,11.6-3.8,14.5c-2.6,2.9-7.1,4.3-13.3,4.3c-6.6,0-11.3-1.6-14-4.7   s-4.1-8.5-4.1-16.1V53.4c0-7.7,1.4-13.1,4.1-16.2c2.7-3.1,7.4-4.7,14-4.7c5.8,0,10,1.5,12.8,4.4c2.6,2.7,3.9,6.8,3.9,12.2v1.1v1.7   H345v-1.7c0.1-3-0.3-5.2-1.2-6.7c-0.8-1.5-2.1-2.2-3.8-2.2c-2.2,0-3.8,0.9-4.8,2.6c-1,1.7-1.5,4.5-1.5,8.3V70   c0,5,0.5,8.5,1.4,10.5s2.5,2.9,4.9,2.9c1.8,0,3.2-0.8,4.1-2.5s1.3-4.2,1.2-7.6v-1.7h11.8V71.4z"></path>		<path class="st0" d="M376.8,33.3h6.9h7L403.8,91h-5.7h-5.7l-2.3-12.5h-12.6L375.1,91h-5.7h-5.7L376.8,33.3z M379.1,70h9.5   l-4.7-25.9l0,0L379.1,70z"></path>		<path class="st0" d="M412.4,91.1V33.3h28.8v4.3v4.3h-17v15.3h16.5v4.3v4.3h-16.5v16.7h17.4v4.3v4.3   C441.6,91.1,412.4,91.1,412.4,91.1z"></path>	</g>	<g>		<path class="st0" d="M208.7,105.9h3.7l4.8,20.7h-3l-1-4.7h-5.5l-1,4.7h-2.8L208.7,105.9z M208.2,119.5h4.5l-2.2-11L208.2,119.5z"></path>		<path class="st0" d="M221.5,122.2v0.5v0.6c0.2,1.1,0.8,1.6,1.8,1.5c1.2,0,1.8-0.6,1.9-1.7c0-0.4-0.1-0.7-0.3-1   c-0.3-0.4-0.6-0.7-1-1.1l-1.3-1l-1.4-1.1c-0.6-0.5-1.1-1-1.4-1.4c-0.4-0.5-0.5-1.2-0.5-2.1c0-2.4,1.4-3.6,4.2-3.6   c0.7,0,1.4,0.1,2,0.3c1.2,0.4,1.9,1.2,2.1,2.6v1.1v0.5h-2.7v-0.5v-0.5c-0.1-0.9-0.6-1.4-1.5-1.5c-1,0-1.4,0.5-1.5,1.5   c0,0.4,0.1,0.7,0.2,0.9c0.2,0.3,0.6,0.7,1,1l1.7,1.2c1.5,1,2.3,1.9,2.7,2.6c0.2,0.5,0.3,1,0.3,1.6c0,1.3-0.5,2.3-1.3,3   s-1.8,1-3.2,1c-2.7,0-4.2-1.2-4.5-3.4v-0.7V122h2.7V122.2z"></path>		<path class="st0" d="M230.4,117.7c0-1.5,0.2-2.6,0.5-3.4c0.5-1.1,1.3-1.8,2.5-2.2c0.6-0.2,1.1-0.2,1.8-0.2c0.6,0,1.2,0.1,1.8,0.2   c0.7,0.2,1.3,0.6,1.8,1.1c0.8,0.9,1.1,2.4,1.2,4.5v3.6c0,1.9-0.3,3.3-0.9,4.1c-0.8,1-2,1.6-3.7,1.5c-2.8,0-4.3-1.1-4.6-3.5   c-0.1-0.6-0.1-1.3-0.1-2.1v-3.6H230.4z M233,121.3v1.4c0.1,1.5,0.8,2.2,2,2.2c0.9,0,1.4-0.4,1.7-1.3c0.2-0.5,0.2-1.2,0.2-2.3v-3.8   c0-2.4-0.7-3.6-2-3.5c-1.2,0-1.9,0.7-2,2.2l-0.1,1.4v3.7H233z"></path>		<path class="st0" d="M242.7,117.1c0-1.9,0.3-3.2,0.9-3.9c0.7-0.9,2-1.3,3.7-1.4c2.8,0,4.2,1.2,4.2,3.5v0.8v0.4h-2.7v-0.4v-0.7   c-0.1-1.1-0.6-1.6-1.6-1.6c-1.2,0-1.8,0.6-1.9,2v1.1v4.6v1.5c0,1.2,0.7,1.9,1.8,1.9c1.2,0,1.8-0.7,1.8-2.2V122h2.7v0.7   c0,2.8-1.5,4.2-4.4,4.2c-0.9,0-1.7-0.1-2.3-0.4c-1.5-0.5-2.3-2.1-2.3-4.8v-4.6H242.7z"></path>		<path class="st0" d="M257.1,105.8v2.7h-2.9v-2.7H257.1z M254.3,112.1h2.7v14.4h-2.7V112.1z"></path>		<path class="st0" d="M260.3,114.7c0.1-0.6,0.4-1.1,0.8-1.5s0.9-0.8,1.5-0.9c0.7-0.2,1.4-0.3,2.1-0.3c0.9,0,1.6,0.1,2.3,0.4   c0.9,0.3,1.5,0.9,1.9,1.9c0.2,0.5,0.3,1.4,0.3,2.7v9.8h-2.7V125c-0.5,0.7-0.9,1.2-1.4,1.4c-0.5,0.3-1.2,0.4-1.9,0.4   c-0.5,0-1-0.1-1.4-0.2c-1.4-0.5-2-1.7-2-3.8c0-0.9,0.1-1.7,0.3-2.3c0.3-1.2,1.2-2,2.8-2.4c0.6-0.2,1.3-0.3,1.9-0.3l1.8-0.1V116   c0-1.4-0.6-2.1-1.8-2.1c-0.7,0-1.2,0.2-1.5,0.7c-0.2,0.3-0.4,0.9-0.4,1.7h-2.7C260.2,115.6,260.2,115.1,260.3,114.7z M266.6,119.7   h-0.8c-2.2,0.1-3.3,1.1-3.3,3c0,1.4,0.5,2.1,1.6,2.1c0.9,0,1.6-0.5,2.1-1.5c0.2-0.4,0.3-0.8,0.3-1.2V121L266.6,119.7L266.6,119.7z   "></path>		<path class="st0" d="M272.2,117.1c0-1.9,0.3-3.2,0.9-3.9c0.7-0.9,2-1.3,3.7-1.4c2.8,0,4.2,1.2,4.2,3.5v0.8v0.4h-2.7v-0.4v-0.7   c-0.1-1.1-0.6-1.6-1.6-1.6c-1.2,0-1.8,0.6-1.9,2v1.1v4.6v1.5c0,1.2,0.7,1.9,1.8,1.9c1.2,0,1.8-0.7,1.8-2.2V122h2.7v0.7   c0,2.8-1.5,4.2-4.4,4.2c-0.9,0-1.7-0.1-2.3-0.4c-1.5-0.5-2.3-2.1-2.3-4.8L272.2,117.1L272.2,117.1z"></path>		<path class="st0" d="M286.6,105.8v2.7h-2.9v-2.7H286.6z M283.8,112.1h2.7v14.4h-2.7V112.1z"></path>		<path class="st0" d="M289.4,117.7c0-1.5,0.2-2.6,0.5-3.4c0.5-1.1,1.3-1.8,2.5-2.2c0.6-0.2,1.1-0.2,1.8-0.2c0.6,0,1.2,0.1,1.8,0.2   c0.7,0.2,1.3,0.6,1.8,1.1c0.8,0.9,1.1,2.4,1.2,4.5v3.6c0,1.9-0.3,3.3-0.9,4.1c-0.8,1-2,1.6-3.7,1.5c-2.8,0-4.3-1.1-4.6-3.5   c-0.1-0.6-0.1-1.3-0.1-2.1v-3.6H289.4z M292,121.3v1.4c0.1,1.5,0.8,2.2,2,2.2c0.9,0,1.4-0.4,1.7-1.3c0.2-0.5,0.2-1.2,0.2-2.3v-3.8   c0-2.4-0.7-3.6-2-3.5c-1.2,0-1.9,0.7-2,2.2l-0.1,1.4v3.7H292z M294.1,105.8h3.2l-2.7,4.5h-2.2L294.1,105.8z"></path>		<path class="st0" d="M301.6,112.1h2.7v1.3c0.8-1,1.9-1.6,3.3-1.6c0.6,0,1.1,0.1,1.6,0.3c1.1,0.5,1.7,1.4,1.8,2.7v1.9v9.8h-2.7   v-9.1v-1.5c0-1.4-0.7-2.1-1.9-2.1c-0.9,0-1.5,0.4-1.8,1.1c-0.2,0.4-0.3,0.8-0.3,1.3s-0.1,0.9,0,1.4v8.9h-2.7V112.1z"></path>		<path class="st0" d="M329.9,105.8v20.7h-2.7v-1.3c-1,1.1-2,1.6-3.1,1.6c-0.9,0-1.6-0.2-2.2-0.7s-1-1.2-1.2-2   c-0.1-0.7-0.2-1.4-0.2-2.2v-4.8c0-3.5,1.2-5.3,3.8-5.3c0.9,0,1.7,0.2,2.3,0.7c0.2,0.1,0.4,0.4,0.7,0.6v-7.3L329.9,105.8   L329.9,105.8z M323.2,121.5c0,0.7,0,1.3,0.1,1.6c0.1,1.2,0.7,1.7,1.8,1.7c0.6,0,1.2-0.2,1.5-0.7c0.4-0.5,0.7-1.6,0.7-3.3v-4.2   c0-0.5,0-1-0.1-1.4s-0.3-0.8-0.6-1c-0.3-0.3-0.7-0.4-1.2-0.4c-1.3,0-1.9,0.7-2.1,2.1c-0.1,0.5-0.1,1-0.1,1.7L323.2,121.5   L323.2,121.5z"></path>		<path class="st0" d="M335.2,121.9c0,1,0.1,1.7,0.2,2.1c0.3,0.6,0.8,0.9,1.7,0.9c1.2,0,1.9-0.5,2-1.6l0.1-0.6v-0.3h2.7v0.3v1   c-0.2,2.2-1.8,3.3-4.7,3.3c-0.7,0-1.3-0.1-1.9-0.2c-0.8-0.2-1.4-0.6-1.8-1.1c-0.6-0.7-0.9-2-0.9-3.8v-4.1c0-2,0.3-3.4,0.8-4.2   c0.8-1,2.1-1.6,3.9-1.6c2.9,0,4.4,1.2,4.6,3.6c0,0.5,0.1,1,0.1,1.6v3.2h-6.7v1.5H335.2z M335.2,118.3h4v-1.7c0-1.8-0.7-2.7-2-2.7   c-0.9,0-1.4,0.4-1.7,1.1c-0.2,0.4-0.3,1.1-0.3,2.1V118.3z"></path>		<path class="st0" d="M351.6,105.9h2.8v13.8v1.8c0.1,2,1,3,2.8,3s2.8-0.9,3-2.8c0.1-0.7,0.1-1.3,0.1-2v-13.8h2.8v14   c0,1.1,0,2-0.1,2.7c-0.1,1-0.4,1.8-0.9,2.4c-1,1.2-2.6,1.9-4.8,1.9c-2.2,0-3.8-0.6-4.8-1.9c-0.5-0.7-0.9-1.5-0.9-2.5   c0-0.5-0.1-1.4-0.1-2.7v-13.9H351.6z"></path>		<path class="st0" d="M369,122.2v0.5v0.6c0.2,1.1,0.8,1.6,1.8,1.5c1.2,0,1.8-0.6,1.9-1.7c0-0.4-0.1-0.7-0.3-1   c-0.3-0.4-0.6-0.7-1-1.1l-1.3-1l-1.4-1.1c-0.6-0.5-1.1-1-1.4-1.4c-0.4-0.5-0.5-1.2-0.5-2.1c0-2.4,1.4-3.6,4.2-3.6   c0.7,0,1.4,0.1,2,0.3c1.2,0.4,1.9,1.2,2.1,2.6v1.1v0.5h-2.7v-0.5v-0.5c-0.1-0.9-0.6-1.4-1.5-1.5c-1,0-1.4,0.5-1.5,1.5   c0,0.4,0.1,0.7,0.2,0.9c0.2,0.3,0.6,0.7,1,1l1.7,1.2c1.5,1,2.3,1.9,2.7,2.6c0.2,0.5,0.3,1,0.3,1.6c0,1.3-0.5,2.3-1.3,3   s-1.8,1-3.2,1c-2.7,0-4.2-1.2-4.5-3.4v-0.7V122h2.7V122.2z"></path>		<path class="st0" d="M380.5,112.1v9.7c0,1,0.1,1.7,0.2,2c0.3,0.7,0.8,1,1.6,1c0.5,0,1-0.1,1.3-0.4c0.4-0.3,0.7-0.8,0.9-1.5   c0.1-0.4,0.1-0.8,0.1-1.3V112h2.7v14.4h-2.7v-1.3l-0.5,0.6c-0.7,0.7-1.6,1-2.7,1c-1,0-1.8-0.3-2.5-0.9c-0.6-0.5-1-1.4-1-2.5v-1.6   v-9.8h2.6V112.1z"></path>		<path class="st0" d="M390.6,114.7c0.1-0.6,0.4-1.1,0.8-1.5s0.9-0.8,1.5-0.9c0.7-0.2,1.4-0.3,2.1-0.3c0.9,0,1.6,0.1,2.3,0.4   c0.9,0.3,1.5,0.9,1.9,1.9c0.2,0.5,0.3,1.4,0.3,2.7v9.8h-2.7V125c-0.5,0.7-0.9,1.2-1.4,1.4c-0.5,0.3-1.2,0.4-1.9,0.4   c-0.5,0-1-0.1-1.4-0.2c-1.4-0.5-2-1.7-2-3.8c0-0.9,0.1-1.7,0.3-2.3c0.3-1.2,1.2-2,2.8-2.4c0.6-0.2,1.3-0.3,1.9-0.3l1.8-0.1V116   c0-1.4-0.6-2.1-1.8-2.1c-0.7,0-1.2,0.2-1.5,0.7c-0.2,0.3-0.4,0.9-0.4,1.7h-2.7C390.4,115.6,390.5,115.1,390.6,114.7z M396.8,119.7   H396c-2.2,0.1-3.3,1.1-3.3,3c0,1.4,0.5,2.1,1.6,2.1c0.9,0,1.6-0.5,2.1-1.5c0.2-0.4,0.3-0.8,0.3-1.2V121L396.8,119.7L396.8,119.7z"></path>		<path class="st0" d="M405.2,112.1v1.8c0.4-0.7,0.9-1.2,1.4-1.5c0.4-0.2,0.7-0.3,1.1-0.4l0.9-0.1v2.6l-0.9,0.1   c-1,0.1-1.6,0.5-2,1.2c-0.3,0.6-0.5,1.6-0.5,2.8v8h-2.7v-14.4L405.2,112.1L405.2,112.1z"></path>		<path class="st0" d="M413.5,105.8v2.7h-2.9v-2.7H413.5z M410.7,112.1h2.7v14.4h-2.7V112.1z"></path>		<path class="st0" d="M416.3,117.7c0-1.5,0.2-2.6,0.5-3.4c0.5-1.1,1.3-1.8,2.5-2.2c0.6-0.2,1.1-0.2,1.8-0.2c0.6,0,1.2,0.1,1.8,0.2   c0.7,0.2,1.3,0.6,1.8,1.1c0.8,0.9,1.1,2.4,1.2,4.5v3.6c0,1.9-0.3,3.3-0.9,4.1c-0.8,1-2,1.6-3.7,1.5c-2.8,0-4.3-1.1-4.6-3.5   c-0.1-0.6-0.1-1.3-0.1-2.1v-3.6H416.3z M418.9,121.3v1.4c0.1,1.5,0.8,2.2,2,2.2c0.9,0,1.4-0.4,1.7-1.3c0.2-0.5,0.2-1.2,0.2-2.3   v-3.8c0-2.4-0.7-3.6-2-3.5c-1.2,0-1.9,0.7-2,2.2l-0.1,1.4v3.7H418.9z"></path>		<path class="st0" d="M430.8,122.2v0.5v0.6c0.2,1.1,0.8,1.6,1.8,1.5c1.2,0,1.8-0.6,1.9-1.7c0-0.4-0.1-0.7-0.3-1   c-0.3-0.4-0.6-0.7-1-1.1l-1.3-1l-1.4-1.1c-0.6-0.5-1.1-1-1.4-1.4c-0.4-0.5-0.5-1.2-0.5-2.1c0-2.4,1.4-3.6,4.2-3.6   c0.7,0,1.4,0.1,2,0.3c1.2,0.4,1.9,1.2,2.1,2.6v1.1v0.5h-2.7v-0.5v-0.5c-0.1-0.9-0.6-1.4-1.5-1.5c-1,0-1.4,0.5-1.5,1.5   c0,0.4,0.1,0.7,0.2,0.9c0.2,0.3,0.6,0.7,1,1l1.7,1.2c1.5,1,2.3,1.9,2.7,2.6c0.2,0.5,0.3,1,0.3,1.6c0,1.3-0.5,2.3-1.3,3   s-1.8,1-3.2,1c-2.7,0-4.2-1.2-4.5-3.4v-0.7V122h2.7V122.2z"></path>		<path class="st0" d="M455.7,105.8v20.7H453v-1.3c-1,1.1-2,1.6-3.1,1.6c-0.9,0-1.6-0.2-2.2-0.7s-1-1.2-1.2-2   c-0.1-0.7-0.2-1.4-0.2-2.2v-4.8c0-3.5,1.2-5.3,3.8-5.3c0.9,0,1.7,0.2,2.3,0.7c0.2,0.1,0.4,0.4,0.7,0.6v-7.3L455.7,105.8   L455.7,105.8z M449,121.5c0,0.7,0,1.3,0.1,1.6c0.1,1.2,0.7,1.7,1.8,1.7c0.6,0,1.2-0.2,1.5-0.7c0.4-0.5,0.7-1.6,0.7-3.3v-4.2   c0-0.5,0-1-0.1-1.4s-0.3-0.8-0.6-1c-0.3-0.3-0.7-0.4-1.2-0.4c-1.3,0-1.9,0.7-2.1,2.1c-0.1,0.5-0.1,1-0.1,1.7L449,121.5L449,121.5z   "></path>		<path class="st0" d="M461,121.9c0,1,0.1,1.7,0.2,2.1c0.3,0.6,0.8,0.9,1.7,0.9c1.2,0,1.9-0.5,2-1.6l0.1-0.6v-0.3h2.7v0.3v1   c-0.2,2.2-1.8,3.3-4.7,3.3c-0.7,0-1.3-0.1-1.9-0.2c-0.8-0.2-1.4-0.6-1.8-1.1c-0.6-0.7-0.9-2-0.9-3.8v-4.1c0-2,0.3-3.4,0.8-4.2   c0.8-1,2.1-1.6,3.9-1.6c2.9,0,4.4,1.2,4.6,3.6c0,0.5,0.1,1,0.1,1.6v3.2H461V121.9z M461,118.3h4v-1.7c0-1.8-0.7-2.7-2-2.7   c-0.9,0-1.4,0.4-1.7,1.1c-0.2,0.4-0.3,1.1-0.3,2.1V118.3z"></path>		<path class="st0" d="M204.8,137.3h5.2c0.8,0,1.6,0.1,2.3,0.2c2.5,0.4,3.8,2.2,3.8,5.2c0,1.5-0.3,2.7-0.9,3.4   c-0.5,0.6-1.4,1.1-2.8,1.4c1.7,0.2,2.8,0.7,3.4,1.5c0.6,0.9,0.9,2.1,1,3.6c0,0.8-0.1,1.6-0.3,2.4c-0.4,1.3-1.1,2.2-2.3,2.7   c-0.7,0.3-1.9,0.4-3.6,0.4h-5.4v-20.8H204.8z M207.7,139.6v6.6h2.2c0.6,0,1.2,0,1.6-0.1c1.1-0.2,1.7-1.3,1.7-3.3   c0-2.1-1.1-3.1-3.4-3.2H207.7z M207.7,148.6v7.1h2.2c1.4,0,2.4-0.3,3-0.8s0.9-1.5,0.9-2.9c0-1.8-0.7-2.9-2.2-3.2   c-0.5-0.1-1-0.1-1.6-0.1h-2.3V148.6z"></path>		<path class="st0" d="M219.7,146.1c0.1-0.6,0.4-1.1,0.8-1.5s0.9-0.8,1.5-0.9c0.7-0.2,1.4-0.3,2.1-0.3c0.9,0,1.6,0.1,2.3,0.4   c0.9,0.3,1.5,0.9,1.9,1.9c0.2,0.5,0.3,1.4,0.3,2.7v9.8h-2.7v-1.6c-0.5,0.7-0.9,1.2-1.4,1.4c-0.5,0.3-1.2,0.4-1.9,0.4   c-0.5,0-1-0.1-1.4-0.2c-1.4-0.5-2-1.7-2-3.8c0-0.9,0.1-1.7,0.3-2.3c0.3-1.2,1.2-2,2.8-2.4c0.6-0.2,1.3-0.3,1.9-0.3l1.8-0.1v-1.7   c0-1.4-0.6-2.1-1.8-2.1c-0.7,0-1.2,0.2-1.5,0.7c-0.2,0.3-0.4,0.9-0.4,1.7h-2.7C219.5,147.1,219.6,146.6,219.7,146.1z M225.9,151.1   h-0.8c-2.2,0.1-3.3,1.1-3.3,3c0,1.4,0.5,2.1,1.6,2.1c0.9,0,1.6-0.5,2.1-1.5c0.2-0.4,0.3-0.8,0.3-1.2v-1.1L225.9,151.1L225.9,151.1   z"></path>		<path class="st0" d="M231.5,143.6h2.7v1.3c0.8-1,1.9-1.6,3.3-1.6c0.6,0,1.1,0.1,1.6,0.3c1.1,0.5,1.7,1.4,1.8,2.7v1.9v9.8h-2.7   v-9.1v-1.5c0-1.4-0.7-2.1-1.9-2.1c-0.9,0-1.5,0.4-1.8,1.1c-0.2,0.4-0.3,0.8-0.3,1.3s-0.1,0.9,0,1.4v8.9h-2.7L231.5,143.6   L231.5,143.6z"></path>		<path class="st0" d="M243.8,148.6c0-1.9,0.3-3.2,0.9-3.9c0.7-0.9,2-1.3,3.7-1.4c2.8,0,4.2,1.2,4.2,3.5v0.8v0.4H250v-0.4v-0.7   c-0.1-1.1-0.6-1.6-1.6-1.6c-1.2,0-1.8,0.6-1.9,2v1.1v4.6v1.5c0,1.2,0.7,1.9,1.8,1.9c1.2,0,1.8-0.7,1.8-2.2v-0.6h2.7v0.7   c0,2.8-1.5,4.2-4.4,4.2c-0.9,0-1.7-0.1-2.3-0.4c-1.5-0.5-2.3-2.1-2.3-4.8V148.6z"></path>		<path class="st0" d="M255.4,149.1c0-1.5,0.2-2.6,0.5-3.4c0.5-1.1,1.3-1.8,2.5-2.2c0.6-0.2,1.1-0.2,1.8-0.2c0.6,0,1.2,0.1,1.8,0.2   c0.7,0.2,1.3,0.6,1.8,1.1c0.8,0.9,1.1,2.4,1.2,4.5v3.6c0,1.9-0.3,3.3-0.9,4.1c-0.8,1-2,1.6-3.7,1.5c-2.8,0-4.3-1.1-4.6-3.5   c-0.1-0.6-0.1-1.3-0.1-2.1v-3.6H255.4z M258.1,152.7v1.4c0.1,1.5,0.8,2.2,2,2.2c0.9,0,1.4-0.4,1.7-1.3c0.2-0.5,0.2-1.2,0.2-2.3   v-3.8c0-2.4-0.7-3.6-2-3.5c-1.2,0-1.9,0.7-2,2.2l-0.1,1.4v3.7H258.1z"></path>		<path class="st0" d="M270,153.6v0.5v0.6c0.2,1.1,0.8,1.6,1.8,1.5c1.2,0,1.8-0.6,1.9-1.7c0-0.4-0.1-0.7-0.3-1   c-0.3-0.4-0.6-0.7-1-1.1l-1.3-1l-1.4-1.1c-0.6-0.5-1.1-1-1.4-1.4c-0.4-0.5-0.5-1.2-0.5-2.1c0-2.4,1.4-3.6,4.2-3.6   c0.7,0,1.4,0.1,2,0.3c1.2,0.4,1.9,1.2,2.1,2.6v1.1v0.5h-2.7v-0.5v-0.5c-0.1-0.9-0.6-1.4-1.5-1.5c-1,0-1.4,0.5-1.5,1.5   c0,0.4,0.1,0.7,0.2,0.9c0.2,0.3,0.6,0.7,1,1l1.7,1.2c1.5,1,2.3,1.9,2.7,2.6c0.2,0.5,0.3,1,0.3,1.6c0,1.3-0.5,2.3-1.3,3   s-1.8,1-3.2,1c-2.7,0-4.2-1.2-4.5-3.4v-0.7v-0.5h2.7V153.6z"></path>		<path class="st0" d="M279.1,154.6h3l-2.6,6.5h-1.9L279.1,154.6z"></path>		<path class="st0" d="M300.5,142.8v-1c-0.1-1.7-0.9-2.5-2.4-2.5c-1.4,0-2.2,0.4-2.7,1.3c-0.2,0.4-0.3,0.8-0.4,1.3v1.7v8.2   c0,1.5,0.1,2.4,0.4,2.9c0.5,0.9,1.3,1.3,2.4,1.3c1.5,0,2.4-0.9,2.6-2.6l0.1-1.3v-0.7h2.8v0.7v1.3c-0.1,1.5-0.5,2.7-1.3,3.6   c-0.5,0.5-1,0.9-1.7,1.1c-0.8,0.3-1.6,0.4-2.5,0.4c-0.8,0-1.5-0.1-2.2-0.2c-2.3-0.5-3.5-2.5-3.5-5.8V144c0-0.9,0-1.7,0.1-2.5   c0.1-0.9,0.4-1.7,0.8-2.3c0.9-1.4,2.5-2.1,4.9-2.1c3.3,0,5.1,1.3,5.3,3.9c0,0.5,0.1,1,0.1,1.6v0.8h-2.8L300.5,142.8L300.5,142.8z"></path>		<path class="st0" d="M307.1,146.1c0.1-0.6,0.4-1.1,0.8-1.5s0.9-0.8,1.5-0.9c0.7-0.2,1.4-0.3,2.1-0.3c0.9,0,1.6,0.1,2.3,0.4   c0.9,0.3,1.5,0.9,1.9,1.9c0.2,0.5,0.3,1.4,0.3,2.7v9.8h-2.7v-1.6c-0.5,0.7-0.9,1.2-1.4,1.4c-0.5,0.3-1.2,0.4-1.9,0.4   c-0.5,0-1-0.1-1.4-0.2c-1.4-0.5-2-1.7-2-3.8c0-0.9,0.1-1.7,0.3-2.3c0.3-1.2,1.2-2,2.8-2.4c0.6-0.2,1.3-0.3,1.9-0.3l1.8-0.1v-1.7   c0-1.4-0.6-2.1-1.8-2.1c-0.7,0-1.2,0.2-1.5,0.7c-0.2,0.3-0.4,0.9-0.4,1.7H307C306.9,147.1,307,146.6,307.1,146.1z M313.3,151.1   h-0.8c-2.2,0.1-3.3,1.1-3.3,3c0,1.4,0.5,2.1,1.6,2.1c0.9,0,1.6-0.5,2.1-1.5c0.2-0.4,0.3-0.8,0.3-1.2v-1.1L313.3,151.1L313.3,151.1   z"></path>		<path class="st0" d="M317.7,161.7c0.7,0,1.1-0.3,1.1-0.8v-1.1v-16.1h2.7v15.9v1.6c-0.1,1.7-1,2.5-2.7,2.6c-0.4,0-1-0.1-1.6-0.2   v-1.8L317.7,161.7z M321.6,137.3v2.7h-2.9v-2.7H321.6z"></path>		<path class="st0" d="M324.9,146.1c0.1-0.6,0.4-1.1,0.8-1.5s0.9-0.8,1.5-0.9c0.7-0.2,1.4-0.3,2.1-0.3c0.9,0,1.6,0.1,2.3,0.4   c0.9,0.3,1.5,0.9,1.9,1.9c0.2,0.5,0.3,1.4,0.3,2.7v9.8h-2.7v-1.6c-0.5,0.7-0.9,1.2-1.4,1.4c-0.5,0.3-1.2,0.4-1.9,0.4   c-0.5,0-1-0.1-1.4-0.2c-1.4-0.5-2-1.7-2-3.8c0-0.9,0.1-1.7,0.3-2.3c0.3-1.2,1.2-2,2.8-2.4c0.6-0.2,1.3-0.3,1.9-0.3l1.8-0.1v-1.7   c0-1.4-0.6-2.1-1.8-2.1c-0.7,0-1.2,0.2-1.5,0.7c-0.2,0.3-0.4,0.9-0.4,1.7h-2.7C324.8,147.1,324.8,146.6,324.9,146.1z M331.1,151.1   h-0.8c-2.2,0.1-3.3,1.1-3.3,3c0,1.4,0.5,2.1,1.6,2.1c0.9,0,1.6-0.5,2.1-1.5c0.2-0.4,0.3-0.8,0.3-1.2v-1.1L331.1,151.1L331.1,151.1   z"></path>		<path class="st0" d="M339,153.6v0.5v0.6c0.2,1.1,0.8,1.6,1.8,1.5c1.2,0,1.8-0.6,1.9-1.7c0-0.4-0.1-0.7-0.3-1   c-0.3-0.4-0.6-0.7-1-1.1l-1.3-1l-1.4-1.1c-0.6-0.5-1.1-1-1.4-1.4c-0.4-0.5-0.5-1.2-0.5-2.1c0-2.4,1.4-3.6,4.2-3.6   c0.7,0,1.4,0.1,2,0.3c1.2,0.4,1.9,1.2,2.1,2.6v1.1v0.5h-2.7v-0.5v-0.5c-0.1-0.9-0.6-1.4-1.5-1.5c-1,0-1.4,0.5-1.5,1.5   c0,0.4,0.1,0.7,0.2,0.9c0.2,0.3,0.6,0.7,1,1l1.7,1.2c1.5,1,2.3,1.9,2.7,2.6c0.2,0.5,0.3,1,0.3,1.6c0,1.3-0.5,2.3-1.3,3   s-1.8,1-3.2,1c-2.7,0-4.2-1.2-4.5-3.4v-0.7v-0.5h2.7V153.6z"></path>		<path class="st0" d="M356.7,143.6l2.5,10.8l2.6-10.8h2.6l-5.5,19.8h-2.5l1.5-5.1l-3.9-14.7H356.7z"></path>		<path class="st0" d="M376.1,151.1v1.2c0,0.6,0,1.1,0.2,1.6c0.3,1.4,1.2,2.1,2.8,2.1c0.6,0,1.1-0.1,1.6-0.3c1.1-0.4,1.6-1.4,1.7-3   c0-1.1-0.4-1.9-1.1-2.5c-0.5-0.4-1.1-0.8-1.8-1.2l-2.1-1.2c-0.8-0.5-1.5-0.9-2.1-1.4c-1.1-1-1.7-2.4-1.7-4.2c0-2,0.7-3.4,1.9-4.3   c0.9-0.6,2.2-1,3.9-1c2,0,3.5,0.5,4.3,1.4c0.7,0.8,1.1,2.2,1.1,4.4v0.4H382v-0.5l-0.1-1.1c-0.2-1.6-1-2.4-2.5-2.3   c-1.9,0-2.9,1-2.9,2.8c0,1.2,0.6,2.2,1.8,2.9c0.7,0.5,1.6,1,2.5,1.4c0.9,0.5,1.7,0.9,2.3,1.4c1.4,1,2.1,2.6,2.1,4.7   c0,3.8-2.1,5.7-6.1,5.7c-1.7,0-3.1-0.3-4-1.1c-1.1-0.9-1.7-2.1-1.8-3.7v-1.7v-0.8h2.8V151.1z"></path>		<path class="st0" d="M390.3,153.3c0,1,0.1,1.7,0.2,2.1c0.3,0.6,0.8,0.9,1.7,0.9c1.2,0,1.9-0.5,2-1.6l0.1-0.6v-0.3h2.7v0.3v1   c-0.2,2.2-1.8,3.3-4.7,3.3c-0.7,0-1.3-0.1-1.9-0.2c-0.8-0.2-1.4-0.6-1.8-1.1c-0.6-0.7-0.9-2-0.9-3.8v-4.1c0-2,0.3-3.4,0.8-4.2   c0.8-1,2.1-1.6,3.9-1.6c2.9,0,4.4,1.2,4.6,3.6c0,0.5,0.1,1,0.1,1.6v3.2h-6.7v1.5H390.3z M390.3,149.7h4V148c0-1.8-0.7-2.7-2-2.7   c-0.9,0-1.4,0.4-1.7,1.1c-0.2,0.4-0.3,1.1-0.3,2.1V149.7z"></path>		<path class="st0" d="M405.6,157.2c-0.6,0.6-1.4,0.8-2.4,0.9c-2.1,0-3.3-1.1-3.5-3.3c-0.1-0.7-0.1-1.4-0.1-2.3v-4.2v-1.5   c0-1.1,0.4-2,1-2.6c0.7-0.6,1.6-0.9,2.6-1c1,0,1.8,0.3,2.6,0.9l0.5,0.5v-1.1h2.7v13.2v1.9c0,0.9-0.1,1.6-0.1,2   c-0.1,0.7-0.4,1.3-0.9,1.8c-0.8,0.9-2.1,1.3-3.7,1.3c-2.8,0-4.3-1.4-4.2-4.2V159h2.3v0.6c0,1.4,0.6,2.1,1.9,2   c0.9,0,1.5-0.2,1.8-0.6c0.3-0.4,0.4-1,0.4-1.9v-2.6L405.6,157.2z M402.2,152.4v1.3c0,1.6,0.6,2.4,1.9,2.3c1,0,1.6-0.4,1.9-1.1   c0.1-0.3,0.2-0.6,0.2-1.1v-1.3v-4.2c0-1.2-0.2-2.1-0.7-2.6c-0.3-0.2-0.7-0.4-1.3-0.4c-1.4,0-2,1-2,3V152.4z"></path>		<path class="st0" d="M414.5,143.6v9.7c0,1,0.1,1.7,0.2,2c0.3,0.7,0.8,1,1.6,1c0.5,0,1-0.1,1.3-0.4c0.4-0.3,0.7-0.8,0.9-1.5   c0.1-0.4,0.1-0.8,0.1-1.3v-9.6h2.7V158h-2.7v-1.3l-0.5,0.6c-0.7,0.7-1.6,1-2.7,1c-1,0-1.8-0.3-2.5-0.9c-0.6-0.5-1-1.4-1-2.5v-1.6   v-9.8h2.6V143.6z"></path>		<path class="st0" d="M426.9,143.6v1.8c0.4-0.7,0.9-1.2,1.4-1.5c0.4-0.2,0.7-0.3,1.1-0.4l0.9-0.1v2.6l-0.9,0.1   c-1,0.1-1.6,0.5-2,1.2c-0.3,0.6-0.5,1.6-0.5,2.8v8h-2.7v-14.4h2.7V143.6z"></path>		<path class="st0" d="M431.8,149.1c0-1.5,0.2-2.6,0.5-3.4c0.5-1.1,1.3-1.8,2.5-2.2c0.6-0.2,1.1-0.2,1.8-0.2c0.6,0,1.2,0.1,1.8,0.2   c0.7,0.2,1.3,0.6,1.8,1.1c0.8,0.9,1.1,2.4,1.2,4.5v3.6c0,1.9-0.3,3.3-0.9,4.1c-0.8,1-2,1.6-3.7,1.5c-2.8,0-4.3-1.1-4.6-3.5   c-0.1-0.6-0.1-1.3-0.1-2.1v-3.6H431.8z M434.5,152.7v1.4c0.1,1.5,0.8,2.2,2,2.2c0.9,0,1.4-0.4,1.7-1.3c0.2-0.5,0.2-1.2,0.2-2.3   v-3.8c0-2.4-0.7-3.6-2-3.5c-1.2,0-1.9,0.7-2,2.2l-0.1,1.4v3.7H434.5z"></path>		<path class="st0" d="M446.4,153.6v0.5v0.6c0.2,1.1,0.8,1.6,1.8,1.5c1.2,0,1.8-0.6,1.9-1.7c0-0.4-0.1-0.7-0.3-1   c-0.3-0.4-0.6-0.7-1-1.1l-1.3-1l-1.4-1.1c-0.6-0.5-1.1-1-1.4-1.4c-0.4-0.5-0.5-1.2-0.5-2.1c0-2.4,1.4-3.6,4.2-3.6   c0.7,0,1.4,0.1,2,0.3c1.2,0.4,1.9,1.2,2.1,2.6v1.1v0.5h-2.7v-0.5v-0.5c-0.1-0.9-0.6-1.4-1.5-1.5c-1,0-1.4,0.5-1.5,1.5   c0,0.4,0.1,0.7,0.2,0.9c0.2,0.3,0.6,0.7,1,1l1.7,1.2c1.5,1,2.3,1.9,2.7,2.6c0.2,0.5,0.3,1,0.3,1.6c0,1.3-0.5,2.3-1.3,3   s-1.8,1-3.2,1c-2.7,0-4.2-1.2-4.5-3.4v-0.7v-0.5h2.7V153.6z"></path>	</g></g></svg>