<svg xmlns="http://www.w3.org/2000/svg" xmlns:xlink="http://www.w3.org/1999/xlink" id="Layer_1" x="0px" y="0px" viewBox="0 0 788.834 600" style="enable-background:new 0 0 788.834 600;" xml:space="preserve"><g>	<g>		<path style="fill:none;stroke:#FFFFFF;stroke-miterlimit:10;" d="M426.92,41.428l-0.195-5.446l-1.803-2.098l-4.515-0.227   l-4.58,6.256l-3.446-1.644l-8.964,5.477l-5.093-3.222l-4.675,3.128l-11.573-8.643l-8.349,1.131l-4.708-5.9l-2.963,2.578   l-9.999-0.063l-4.317,6.511l-6.062-1.126l-2.933,4.835l-7.254,0.77l-2.48,1.777l-1.003,5.64v3.773l1.55-0.035l4.221-3.189   l7.253-0.066l2.387,3.58l1.386,2.093l-1.288,2.646l2.51,4.418l4.098-0.26l0.32,1.515l-0.836,1.129l1.256,1.964l2.482,0.421   l-0.258,2.772l-2.513,1.482l-5.482-0.644l-0.869-2.613l-1.932-0.901l-4.158,0.386l-2.067,5.61l3.708,2.192l3.027-2.836l2.42,9.769   l4.611-1.388l4.579,2.484l4.448,6.446v2.581l5.383,2.065l3.126-3.062l4.127,4.737l-1.869,2.578l2.386,2.421h5.481l2.125-1.836   l3.191,3.383l1.226,0.515l2.998-5.221l-0.933-2.419l-0.099-2.386l-1.163-0.45l-1.126,0.806l0.967,1.285l-0.806,1.164l-0.904-0.26   l-0.161-2.224l-1.934-1.901l2.063-1.674l0.516-1.066h1.384l0.904-0.808l1.291,1.517l1.323,1.547c0,0,1.226,0.192,1.226,0   c0-0.225-0.453-1.903-0.453-1.903l2.159-1.613l-2.159-3.704l1.194-1.292l0.965,0.646l1.967-1.58l-0.868-4.481l2.708-1.934   l1.963-1.805l-1.256-5.9l5.513,0.26l3.966-6.769l0.482-2.29l3.581-2.065l2.22-4.673l-1.352-1.613L426.92,41.428z M383.43,91.846   l-6.09,0.485l-2.418-3.707l-2.582,2.676l-3.965-0.26l-3.162-4.835l0.228-4.318l3.708-1.613l3.577,2.517l1.808-1l2.964,0.449   l0.676,1.484h1.453l1.064,2.576l2.739,1.937l-0.388,1.581l1.034,0.84L383.43,91.846z"></path>		<g>			<path style="fill:#FFFFFF;" d="M688.402,156.204l0.11-0.046l5.309-6.216l9.628-5.743l1.023-4.858l5.487-2.255l1.666-8.685    l-2.024-3.211l0.807-3.416l-2.36-3.745l-2.548,0.123l-2.322-6.03l2.561-3.899l3.702,2.223l3.785-2.041l2.296-7.59l-0.806,0.148    c-1.144,0.209-2.948,0.535-3.458,0.617c-0.312-0.257-1.129-1.021-1.844-1.71l-0.229-0.221l-2.481,0.949l-0.909-1.842l0.71-1.335    v-3.426l-0.526,0.027c-3.376,0.178-4.244,0.254-4.517,0.307l0-0.003c-0.113,0.021-0.25,0.047-1.601,1.061l-2.197-2.623    l-7.006,0.034l-5.284,1.769l-2.727,2.351l-4.351-0.192l-2.643,2.343v4.055l-1.783-0.389l-3.008-0.421l-2.093,1.939l-4.872-2.841    l-3.346-1.031l-6.559-2.757l-4.949,2.322l-5.644,1.203l-0.103,0.235c-0.489,1.119-1.058,2.361-1.299,2.812    c-0.674,0.044-2.401,0.173-3.443,0.251l-1.948-3.481l-0.829-2.666l-7.517-2.794l-5.928-0.458l-7.812,3.172l-2.454,2.308    l-3.206-0.639l-1.467-3.1l2.157-2.672l-2.934-2.244l0.316-4.574l-6.96-8.283l-9.978,2.071l-0.212-3.752l-13.141-3.381    l-1.977-1.644l-3.283,0.354l-3.215-2.833l-6.433,0.465l-0.916,5.401l0.204,4.206l1.81,2.415l-9.118-0.027l-3.742,1.449    l-3.037-3.78l-3.532,3.832l-6.324-3.898l-0.217,0.067c-2.885,0.893-7.749,2.4-7.825,2.44c-0.127,0.029-0.229,0.052-4.107,2.966    l-3.434-3.955l-2.243-0.238l0.412-0.896l-1.879-2.539l-4.351,0.098l-6.875-4.714l-4.491,4.234l-4.643-2.191l-3.576,3.355    l-2.632-1.639l-0.415-3.48l-3.455,0.173l-3.844-4.174l0.55-4.704l-4.08-0.316l-0.164,0.175c-0.65,0.693-1.616,1.724-2.174,2.328    c-0.258-0.426-0.635-1.104-0.952-1.704l-0.175-0.33l-0.366,0.074c-2.119,0.429-5.231,1.052-6.077,1.211    c-0.382-0.553-1.41-2.208-2.325-3.721l-0.178-0.295l-4.44,0.81l-0.125-0.843l-13.235-6.717l-4,3.546l-2.459-0.862l3.867-10.196    l-2.609-4.334l-7.506-2.261l-2.531,3.816l-5.354-1.979l-2.215-2.363l-13.437,11.694l1.46,1.744l-2.015,4.243l-3.64,2.099    l-0.512,2.428l-3.771,6.438l-5.858-0.276l1.332,6.256l-1.705,1.573l-2.969,2.121l0.872,4.5l-1.446,1.162l-1.016-0.68    l-1.735,1.878l2.121,3.638l-2.074,1.55l0.088,0.328c0.125,0.46,0.258,0.984,0.345,1.345c-0.116-0.009-0.246-0.023-0.377-0.041    l-2.822-3.311l-1.144,1.022h-1.507l-0.604,1.248l-2.411,1.956l2.198,2.162l0.172,2.384l1.584,0.455l1.215-1.755l-0.876-1.165    l0.49-0.351l0.605,0.234l0.085,2.058l0.88,2.356l-2.655,4.624l-0.725-0.296l-3.447-3.655l-2.347,2.027h-5.086l-1.942-1.97    l1.854-2.557l-4.736-5.437l-3.276,3.209l-4.762-1.827v-2.393l-4.604-6.672l-4.867-2.641l-4.308,1.297l-2.499-10.086l-3.376,3.163    l-3.027-1.789l1.814-4.923l3.709-0.344l1.614,0.753l0.901,2.71l5.965,0.701l2.878-1.697l0.325-3.488l-2.721-0.463l-0.951-1.487    l0.765-1.033l-0.456-2.158l-4.217,0.268l-2.226-3.917l1.297-2.667l-4.082-6.137l-7.689,0.07l-4.224,3.191l-0.879,0.012    l-0.006-3.165l0.967-5.439l2.208-1.582l7.369-0.783l3.242-5.343l-2.019-2.563l-0.102-0.097c-3.742-2.676-3.87-2.676-4.064-2.676    c-0.1,0-2.807,0.299-8.047,0.889l-0.806-3.89l-10.18-3.584l-5.151,2.818l-14.072,0.327l-4.672,3.774l-3.227-2.808l-0.327,0.27    c-1.923,1.584-4.098,3.342-4.569,3.666c-0.886,0.057-5.52,0.391-8.423,0.601l-4.054-0.932l-8.132,0.29l-3.64-1.226l-9.097,0.289    l-8.606-3.929l-8.125,0.158l-4.296-2.554l-4.031,0.252l-3.186-4.654l-9.783-1.46l-10.042,0.805l-3.485-0.751l-3.175-4.231    l-4.659-4.073l-5.339,4.72l-4.873,2.313l-6.462,0.347l-4.852-2.051l-8.548,2.247l-3.285-1.788l-5.887,2.192l-4.935-2.908    l-5.4,2.083l-5.396-2l-9.929,0.263l-1.8,0.874l-0.793-1.492l-10.125,0.225L113,12.427v-3.29l-6.604-4.04l-7.524,0.829    l-2.22-2.474l-1.605-0.123l-0.251-0.454l1.078-1.905L94.141,0l-6.434,4.128L86.974,6.48c-1.367,0.653-2.825,1.329-3.449,1.604    c-0.084-0.345-0.192-0.881-0.281-1.386l1.663-1.887l-0.352-3.729h-3.914l-2.497,3.014c-1.711,0.113-4.119,0.269-4.264,0.273    c-0.391,0-0.488,0-2.527,4.664l-5.875,1.745l-1.467,3.667l-6.565,0.989l0.108,6.54l5.276,5.21l2.357-0.931l0.018,0.011    l-1.092,2.204l-0.438,4.375l-1.771-1.6v-3.891l-4.357-0.54l-0.471,4.124l-6.3-2l-5.088,4.417l-4.503-1.468l-2.955,1.902    l-6.017-0.605l-2.562-3.609l-1.257,1.748h-2.082l-2.093,2.611h-3.582l2.461,4.371l-0.109,0.262l-3.935-1.494l-2.731,4.543    l-3.205-1.914H9.717l-2.764,4.115l0.018,0.179c0.073,0.732,0.137,1.623,0.121,1.874l-0.075,0.149l0.072,0.215    c0.051,0.153,0.137,0.41,1.412,0.941l0.358,0.149l1.547-2.048l0.838,0.928l-2.516,2.804l-2.733-1.654L2.062,50.87l2.722,4.698    L0,60.477l3.233,5.139l1.606-3.75l3.799-0.225l2.054,2.339l-2.416,2.113l0.891,2.787h1.05l-0.671,3.604l3.744,4.556l2.604-4.752    l4.58-0.161l2.047-3.042l1.24,0.884l-0.42,3.296h-3.503l-2.411,3.583l-2.954,0.431l-2.999,8.967l3.523,7.053l4.62-4.485    l0.487,0.488l2.534-1.287l0.357-3.293l2.324-1.549l3.02,0.835l-0.026,3.184l-3.147,3.18l1.199,3.146l-2.497,0.546l-0.936-1.294    l0.775-3.481l-2.552,0.675l-0.669,3.65l-3.198,2.651l4.688,2.91l1.397,4.328l2.072,0.211l6.932-4.178l0.985,1.67l-10.103,6.649    l-0.01,0.256c-0.021,0.529-0.128,3.175-0.128,3.309c0,0.396,0,0.467,3.538,1.884l0.261,0.104l3.745-2.804l2.493,2.087    l-11.235,6.266l2.011,3.851l-0.586,1.214l-3.721-0.919l-0.5,15.22l-0.004,0.12l1.896,4.037l2.98-3.512l3.802-1.787l2.887-2.64    l3.418-2.109l0.091-2.306l5.924-0.521l3.581-2.68l3.757,1.719l5.117-1.25l2.207-3.758c1.031,0.051,3.089,0.153,3.992,0.194    c0.028,0.79-0.004,2.751-0.062,4.529L58.7,128.69l2.584,1.162l3.827-0.356l0.514,3.101l-0.83,1.885l-5.034,2.337l-2.02,3.438    l0.946,3.814l0.894,4.846l4.872,1.4l5.332-2.735l0.716-2.38l0.287,0.301l1.61-0.195l0.689-1.745l1.017-1.197l0.951,1.12v2.958    h3.436l6.823-3.055l5.521,2.029l-0.204,3.916l6.087-0.221l2.056-1.963l1.284,0.564l-0.106,2.846l0.673-0.207    c1.43-0.439,3.732-1.139,4.188-1.258c0.453,0.081,2.718,0.554,4.132,0.853l0.276,0.058l3.253-3.481l3.437,0.247l-0.129-7.387    l4.371,0.279l2.771,2.071l3.682-1.298l0.296-0.024h0.334l0.009-0.025c0.234-0.016,0.496-0.034,0.788-0.052    c0.918-0.058,1.461-0.095,1.746-0.132c0.446,0.261,1.998,1.687,3.261,2.938l0.272,0.27l5.065-2.948l3.406,3.98l7.147-2.721    l2.239,2.268l-1.855,4.189l2.665,3.308l-2.433,4.773l-0.288,4.859l5.144,5.609l4.141-3.634l5.593,0.513l7.006,7.41l-0.166,2.961    l-5.957,4.254l-0.661,8.066l-4.208,0.392l-8.369,7.953l-5.421,0.196l-9.718,9.65l0.442,4.896c-1.67,1.07-3.476,2.177-3.908,2.364    c-0.51-0.07-1.851-0.134-5.744-0.222l-0.854-0.019l4.977,9.364l-0.236,3.137l2.841,2.046l-2.538,8.557l3.087,6.076l-3.931,5.956    l2.805,5.803l-3.612,5.436l3.61,4.926l-0.737,2.778l-2.869,2.467l-0.002-0.003l-0.447,0.389l-0.325,0.279l0.001,0.002    l-2.045,1.781l-6.111,0.331l-2.28,5.629l3.827,5.762l1.859-0.193l3.57,5.757l-2.648,13.419c-1.483,0.5-3.64,1.22-3.787,1.265    c-0.551,0-0.558,0-2.393,11.781l-5.568-0.249l-0.155,0.149c-0.932,0.896-1.987,1.877-2.4,2.22    c-0.875-0.355-4.174-1.788-6.274-2.707l-0.279-0.122l-3.45,2.8l-12.761-3.761l0.132,0.788c1.354,8.088,1.683,8.295,1.914,8.441    c0.131,0.077,0.932,0.635,1.706,1.175c1.959,1.365,2.738,1.901,3.099,2.111c0.167,0.509,0.614,2.346,0.989,4l0.09,0.397    l3.28-0.068l1.756,2.912c-2.318,3.843-2.347,4.083-2.358,4.182c-0.026,0.166,0,0.419,0.423,2.798    c0.109,0.616,0.202,1.13,0.212,1.211c0,0.314,0,0.377,4.851,4.017l-2.733,4.084l2.718,3.818l5.304,0.557l0.19,5.747l3.606,0.907    l2.77-1.353l4.135,5.224l-5.879,6.733l1.172,6.815l-3.072,0.235l-0.135,0.191c-1.332,1.879-3.504,4.907-3.929,5.407    c-0.52,0.182-2.126,0.829-7.591,3.127l-0.202,0.085l-0.075,0.205c-0.831,2.292-2.105,5.786-2.202,6.009l-0.053,0.105v0.118    c0,0.155,0,0.388,2.059,3.764l-5.019,10.262l5.585,11.17l4.576,1.653l5.587,8.477l6.726-1.752l0.589,1.455    c-0.988,2.14-2.422,5.224-2.529,5.422c-0.104,0.139-0.18,0.239-0.811,6.521l-2.445,1.251l-3.228-2.423l-4.062,4.884l-3.781-1.62    l-5.592,4.799l-1.692,9.143l-7.441,3.424l-0.029,0.283c-0.321,3.118-0.844,8.197-0.926,9.127    c-0.373,0.614-3.05,4.526-4.724,6.953l-0.215,0.312l0.242,0.291c1.145,1.379,2.988,3.617,3.247,3.952    c0.008,0.667-0.156,4.444-0.267,6.794l-0.004,0.089l1.637,5.167l-1.883,1.722l2.595,6.642l2.079,6.525l4.841-3.467l4.886,0.096    l11.279-0.316c6.734,4.669,6.818,4.669,7.02,4.669c0.134,0,0.241,0,2.04-0.966c1.786,1.43,2.238,1.757,2.406,1.847l0,0.001    c0.321,0.176,6.785,4.245,11.058,6.942c0.247,0.15,6.04,3.683,6.302,3.828c0.204,0.135,2.759,2.03,4.398,3.249l3.345,2.887    l0.092,4.226l3.324,7.455l-3.953,2.769l4.139,10.137l4.871,0.29l2.164,5.155l-1.202,3.856l0.333,2.976l3.384,6.082l2.128-0.637    l0.76,1.64c-0.107,0.96-0.27,2.395-0.277,2.477c-0.083,0.212-0.139,0.352,1.135,3.375l0.122,0.288l1.866,0.101l1.652,1.993    l1.479,7.185l3.579-2.399l1.998,2.227l2.39-1.603l11.976,10.825l3.441-0.06l4.693,4.56l7.688-4.195l3.325-0.456l0.045-0.385    c0.457-3.913,0.057-4.363-0.074-4.511l-0.154-0.194h-0.224c-0.152-0.076-0.481-0.564-0.75-1.095l1.988-2.561l3.862,0.522    l2.648-4.99l1.091-3.213l3.653-3.783l1.072-3.966l1.175-1.536l4.98-0.86l3.692-3.436l4.651,0.314l5.973-3.724l10.856,1.864    l6.577-2.879l0.625-3.82l5.134-0.506l4.463-7.973l2.677-2.113l9.332,0.412l8.903-0.293l4.1-2.568l5.985,2.995l4.656-2.711    l5.96,0.187l3.563,1.916l1.998-1.174l8.634-0.121l5.686,5.162l10.028-5.163l13.855,0.19l3.097-1.003l3.124,1.213l5.249-0.913    l3.989,4.477l1.191-2.122l2.553,2.378l7.725-2.406l2.546-2.085l-0.067-4.152l4.568-3.597c0.861-0.112,1.787-0.229,1.887-0.235    c0.192,0.004,6.557,0.247,10.057,0.381l4.272,3.896l3.273,4.78h3.934l4.444-6.03l4.055-0.604l0.406-5.195l1.167-1.63l1.896-1.429    l-0.296-1.558l2.972-0.787l5.562-16.221l-2.283-1.496l2.617-0.918l1.185-4.698l5.712-4.356l0.734-3.366l1.29-2.285l0.969-0.668    l0.003,0.003l0.27-0.191l0.599-0.413l-0.008-0.006l4.015-2.84l4.952,0.568l-0.529-4.403l2.855-2.569l2.645,0.39l3.346-3.676    l8.799-1.332l1.233,2.753h3.379l1.101-1.824c0.145-0.288,0.355-0.604,0.465-0.701c0.594-0.092,3.018-0.729,5.087-1.287    l5.951,2.311l5.895-2.914h4.681l2.439-3.239l-1.488-2.607l-2.626,0.363l-5.401-6.986l2.859-1.586l0.23-3.283l2.272-2.369    l-0.208-1.302l0.01,0.003l-0.128-0.74l-0.054-0.34l-0.005-0.001l-0.082-0.47l2.166-5.108c4.392-5.047,4.391-5.198,4.391-5.429    v-0.414l-0.125-0.024c-0.289-1.071-1.202-5.491-1.794-8.44l5.691-5.24l3.4,0.292l2.266-2.342l-3.33-7.997    c0.272-0.578,0.589-1.196,0.749-1.487c0.225,0.191,0.572,0.535,0.88,0.876l0.274,0.306l2.413-1.435l1.147-3.349l8.999-8.741    l15.197-3.007l-1.271-5.053l4.691-3.472l3.671-0.564l-0.13-3.314l1.77-0.247l2.34,0.388l0.626-3.342l3.949-2.136l-1.628-1.674    l-1.249-2.461l0.338-1.986l-1.128-1.177h-6.165l-7.287-2.303l-4.625-7.961l-3.284-0.608l-4.792-11.421l1.162-4.292l-1.509-1.339    l-0.455-3.494l-3.555-2.284l0.342-4.272l-1.114-1.54l-0.284,0.026c-0.351,0.032-1.204,0.127-1.607,0.356    c-0.24,0.182-0.467,0.354,0.029,4.735h-0.941l-0.337-4.611l2.646-3.733l1.353-12.803l4.249-4.947l4.921-12.953l6.058-6.604    l0.85-4.132l3.8-7.474l5.82-3.139l1.423-8.45l6.863-4.977l5.153-7.869l0.549-4.868l3.224-4.862l0.131-0.472l0.021,0.003    l0.213-0.85l0.035-0.127l-0.003,0l0.615-2.457l4.677-6.736l4.619-1.186l1.972,0.293l-0.205,0.836l-1.425,0.154l-5.444,2.283    l1.179,3.245l7.091-3.153l0.706-2.528l1.531-3.122l6.32-2.674l2.192-4.476l-3.974,0.735l-2.837-3.45l-0.112-1.708l-3.505-0.958    l-1.076,1.42l0.505,1.389l-2.247-1.719l2.778-3.697l4.37-2.87l2.12-4.763l8.481-8.918l7.547-0.646l5.474-4.667l6.315-0.317    l8.259-5.392l6.67-0.471l5.011-1.709l5.179-1.941l6.474-2.806l6.237-0.55l6.625-4.5l0.238-3.166l2.876-5.438l3.437-3.194    l5.722-1.941l6.847-7.202L688.402,156.204z M489.921,74.448l0.361,3.029l3.692,2.299l3.641-3.416l4.644,2.192l4.401-4.149    l6.476,4.441l4.155-0.093l1.219,1.646l-0.747,1.624L521,82.365l3.787,4.361l0.373-0.28c1.496-1.125,3.963-2.965,4.167-3.09    c0.226-0.082,4.597-1.438,7.615-2.372l6.639,4.092l3.304-3.583l2.768,3.445l4.249-1.646l9.547,0.028l1.924,7.416l1.513,0.137    l1.803-0.812l0.184,4.154l-4.218,6.062l3.721,5.914l0.5,7.438l-1.899,7.657l-0.726,13.492l-5.038,3.537l0.683,7.101l-6.107,5.447    l-1.723,1.929l1.022,0.874l-0.236,0.961l-2.889-0.457l-6.038,7.212l3.72,7.227l2.046-0.133l1.356-1.511l0.447,0.102L553,167.856    l-0.58,2.982l-4.593,2.684l1.72,4.06l-1.46,6.283l4.171,7.496l-4.71,5.148l-0.249,3.884l-4.415,2.684l-0.979,4.576l4.178,3.276    l1.806,4.145l-3.993,5.816l2.684,3.281l-0.62,4.569l-4.45,2.496l-1.377,2.536l-3.002-0.028l-2.986,2.356l-0.592-1.602    l-9.545-2.302l-0.477-6.831l-5.536,6.607l-0.577,4.661l-3.129,3.353l-3.671-3.393l-1.846,7.458l5.607,1.026l0.173,5.367    l-3.248,4.928l4.915,5.642l-7.57,6.443l1.901,2.751c-1.513,0.982-3.579,2.312-4.036,2.579c-0.764,0.019-4.742,0.125-6.042,0.159    l-0.366,0.01l-2.359,8.202l-1.667,1.814l0.286,0.336c0.63,0.741,1.327,1.588,1.545,1.892c-0.012,0.121-0.032,0.302-0.051,0.481    c-0.008,0.071-0.016,0.143-0.022,0.21c-0.856-0.001-2.902-0.048-4.237-0.085l-0.165-0.004l-7.493,5.219l-2.143,6.261l2.324,2.735    l-4.094,2.145l-3.025-2.262c1.767-4.611,1.767-4.748,1.767-4.858v-0.5h-0.435c-0.048-0.014-0.133-0.041-0.234-0.074    c-0.054-0.017-0.113-0.036-0.181-0.058c-0.191-0.062-0.433-0.142-0.716-0.235c-0.32-0.106-0.685-0.227-1.089-0.362    c0,0-0.001,0-0.001,0c-1.442-0.481-3.301-1.105-4.748-1.593l-0.241-0.082l-4.02,2.854l-1.601-0.36l0.528-2.797l-1.287-0.665    l4.618-2.425l-2.025-2.894l-0.883-2.613l-3.617,0.522l-4.524-2.066l-1.682-6.232h-2.553l-1.924,6.054l-4.996-0.471l-0.376-2.785    l-4.496-2.538l-2.078,1.529l-7.155-8.365l-3.109,0.809l-0.216-0.088l1.443-2.919l-5.717-5.175l2.561-4.424l3.595-1.898    l-0.609-4.946l0.739-2.422l4.586,2l3.383-3.052l-0.17-3.137l1.459-2.953l-1.946-4.899l1.575-4.393l-4.116-5.585l0.264-6.417    l-6.418-3.607l-4.351-6.416l-6.225-3.824l-2.367,0.518l-2.08-2.754l-5.983,0.899l-1.348-2.378l-3.19,0.374l-1.687-6.434    l2.358-7.544h5.57l5.532-7.92l-2.403-0.401l-2.228-7.669l4.893-0.547l2.166-4.157l4.569-1.688l2.199-5.418l-4.885-5.622    l2.127-3.184l-0.925-2.369h3.685l2.814-4.974l4.702-0.202l2.582,4.573l2.574-0.602l3.175,1.17l4.195-3.079l1.945-4.856    l3.554-3.041l-0.84-1.71l0.425-2.201l-1.167-1.712l-1.876,1.271l-0.447-0.044l-1.077-2.834l0.405-6.412l-2.118-0.48l0.308-3.833    l5.121-8.292l-2.69-3.259l5.573-4.931l-2.122-2.569l1.817-4.9l4.583-1.718l2.011-3.08l6.215-0.202l-0.45-3.837l0.48-0.366h2.376    l2.874-0.873l1.02-2.955l6.293-1.098l-2.465-5.104l1.677-6.167l3.552-0.806l4.121,4.475L489.921,74.448z M463.32,305.443    l-5.122,5.672l0.981,4.683l-2.362,1.531l-3.259-2.352l-7.351,10.57l-1.583,8.916l10.799,8.002l8.997,0.966l2.029,1.917    l-0.398,8.203l-5.21,5.886l-0.797,6.533l10.418,7.813l6.166,0.137l2.802-1.166l1.912,8.718l-1.08,4.413l2.082,4.263l-1.307,3.657    l-3.672,1.627l-3.499-4.461l-3.022,1.116l-0.743-0.683l0.72-2.647l-3.346-2.492l-6.388,1.081l-3.337,6.459l-2.752-4.126    l-3.933,3.511l0.294,4.511l-3.262,3.488l1.203,14.25c-1.344,0.085-3.012,0.189-3.136,0.192c-0.372,0-0.454,0-3.462,5.499    l-4.027,0.262l-1.321-0.984l-0.552-5.088l-7.75,1.381l-5.983,6.53l-5.281,0.574l-3.85-2.458l-2.348,6.072    c-0.71-0.021-1.247-0.03-1.656-0.03c-1.228,0.002-1.301,0.096-1.426,0.256l-0.053,0.069c-0.39,0.347-2.448,1.773-4.317,3.022    l-0.259,0.174l0.647,4.851l-7.638,5.582v1.792l-4.261,0.333l-3.323-3.612l-3.175,0.273l-0.536-2.132l6.527-7.005l-0.449-2.747    l2.638-2.404l-1.459-2.667h-3.599v-8.547v-0.001l-5.108,0.353l0.245-6.622l-3.297-3.371l-5.657,3.455l-3.105-4.091l-6.662,6.6    l-4.545-2.224l-3.424,4.782l-2.813-3.799l-1.696-0.954l-3.208,4.022l-2.236-2.15l-4.401,0.132l-1.636,0.69L340,409.226    l-0.236-0.008c-1.461-0.048-3.859-0.132-4.03-0.148l-0.114-0.013c-0.57,0-0.605,0-0.838,4.879l-6.885,1.84l-3.17-5.424    l-0.449,1.349l-1.176-2.023l-1.061,6.503l-8.361-3.278l-6.829,1.356l-0.786,4.366l-3.559-0.323l-2.336,0.89l-5.026-2.909    l-14.373-0.584l-0.213-0.008l-3.136,3.014l-4.047-3.712l-2.896-0.53l-1.593,0.413l-3.211-6.116l-3.445-0.73l-1.393,0.769    l-0.485-3.667l-3.857-1.908l-1,0.552l0.162-2.161l-9.032-1.175l-0.726-4.506l-0.234-1.452l-2.003-2.412l-5.853,0.708    l-1.701-2.753l2.398-0.877l3.175-10.445l5.651,0.596l-0.337-6.873l-5.656-1.135l-0.781-4.586l4.981,1.219l2.071-2.514    l-1.784-4.18l4.639-6.493l3.524,0.857l2.856,2.992l3.565-2.233l-5.591-3.898l-1.354-5.521l4.405-7.625l-0.75-4.184l-3.314,0.082    l-9.368,6.138l-10.329-7.668l-7.707-7.989l4.244-10.726l-2.475-1.857l1.085-3.609l-2.94-2.663l-3.719,3.061l-4.016-2.118    l2.688-4.662l-6.746-3.164l2.396-4.281l-1.014-9.598l2.438-1.335l3.355,2.249l3.788-2.676l3.597,3.337l5.584-5.448l1.234-1.134    l0.121,1.149l1.2,0.488l0.357,2.841l5.461-1.621l1.188-2.663l0.043-1.722l1.17-0.683l1.708,0.101l2.761-1.587l0.526-3.933    l5.749-0.428l0.717,1.709l-0.472,1.235l0.802,2.497l3.833,0.13l-0.049,0.043h1.321l0.188,0.006l0.007-0.006h2.722l1.658,1.741    l1.834-4.16l3.899,0.344l3.982-4.675l0.9,3.117l1.064,2.169l3.593,1.013v-2.368l4.17-2.87l2.214,2.767l4.622-0.816l4.09,3.9    l11.849-0.13l1.821,2.97l5.621,0.59l4.878,3.648l-3.782,6.29l-2.938,0.608l-0.409,3.14h-4.494l-5.072,3.604l4.729,4.5    l7.538-6.368l6.312-1.503l7.478,0.77l6.45-0.688l1.322-4.707l4.167-0.462l4.044-3.335l4.033,2.817l4.852-3.333l-3.612-4.636    l1.101-7.672l-2.887-2.926l-4.232,2.913l-0.883-2.887l4.566-2.939l1.023-5.075l-5.911-7.445l-0.932-4.146h-2.507l-0.353,0.431    l-3.679-4.271l0.065-3.842l-5.464-6.085l-1.063-4.153l-1.845-0.751l-0.193-3.337l1.594-1.336l0.067-4.098l1.921-2.052    l1.655-6.604l-0.224-0.202c-0.105-0.094-0.211-0.191-0.318-0.289c-0.749-0.688-1.516-1.446-1.728-1.74    c0.041-0.361,0.112-1.31,0.244-3.957l0.032-0.652l-2.817,0.611l-2.092-3.209l4.514-5.474l9.379-3.306l4.557-4.429l5.192,3.826    l7.657-0.68l3.608-3.696l4.393,6.294l7.981-1.799l7.584,5.097l-1.103,4.106l3.655,0.071l4.254,5.476l4.379-1.954l1.123,2.554    l5.151-1.075l0.832-2.324l3.432,1.884l2.694-3.296l3.761,3.477l1.708-1.071l-0.345-5.349l5.28-0.794l2.107,2.791l2.602-0.569    l5.635,3.414l4.422,6.521l6.089,3.422l-0.253,6.156l4.009,5.439l-1.522,4.247l1.921,4.836l-1.378,2.789l0.158,2.922l-2.55,2.3    l-5.023-2.191l-1.128,3.699l0.551,4.472l-3.239,1.711l-3.109,5.373l5.756,5.21l-1.584,3.206l1.52,0.62l2.825-0.736l7.353,8.596    l2.305-1.697l3.498,1.975l0.272,2.063l-0.017-0.002l0.101,0.635l0.051,0.383l0.01,0.001l0.008,0.051    c0.196,1.035,0.717,3.816,0.767,4.249c0.021,0.185,0.06,0.528,2.13,3.06c0.117,0.143,0.226,0.276,0.332,0.404    c0.202,0.25,0.4,0.488,0.593,0.714c1.195,1.423,1.303,1.427,1.507,1.427c0.119,0,2.527-0.233,4.614-0.437l1.886,1.531l4.82-0.773    l1.234,1.089l-0.479,1.187l-2.989,1.645L463.32,305.443z M264.935,276.511l-0.565-0.504l0.903-0.739l-0.612-1.423l2.291-2.885    l3.79-0.295l3.769-6.788l5.994-3.424l-1.417-7.567l2.243-3.407l0.564-2.665l0.377-0.12l2.396,1.783l4.168-1.563l0.396-6.122    l4.951-5.905l2.094-0.511l5.476-3.468v-3.084l3.355-6.493l4.619-2.496l2.335-0.309l3.658-5.729l2.608-0.611l3.304-5.151    l0.463,0.026l4.216,0.234l2.53,3.881l2.215-0.48c-0.03,0.585-0.062,1.168-0.092,1.677c-0.049,0.849-0.092,1.493-0.108,1.597    l-0.026,0.16c0,0.209,0,0.522,2.168,2.492l-1.446,5.77l-2.007,2.144l-0.066,4.027l-1.629,1.366l0.259,4.469l1.963,0.799    l0.999,3.902l5.365,5.976l-0.064,3.83l4.704,5.463l0.807-0.987h1.233l0.781,3.478l5.79,7.372l-0.847,4.205l-4.848,3.12    l1.503,4.916l4.667-3.212l1.949,1.976l-1.091,7.603l3.221,4.134l-3.406,2.339l-4.088-2.855l-4.4,3.629l-4.541,0.503l-1.321,4.704    l-5.672,0.605l-7.542-0.776l-6.709,1.597l-7.035,5.943l-3.201-3.045l3.823-2.717h5.052l0.43-3.305l2.67-0.552l4.473-7.44    l-5.824-4.354l-5.404-0.568l-1.86-3.032l-12.009,0.131l-4.161-3.967l-4.536,0.8l-2.425-3.031l-5.37,3.696v1.572l-1.893-0.534    l-0.835-1.685l-1.382-4.825l0,0l0,0l-4.855,5.699l-4.098-0.362l-1.518,3.444l-0.92-0.966h-2.011L264.935,276.511z     M466.88,292.576l-0.47-0.415l-0.111-0.098l0.618,0.319L466.88,292.576z M464.585,291.179l0.085,0.044l-4.273,0.685l-1.858-1.508    l-0.205,0.02c-1.574,0.154-3.868,0.376-4.538,0.436c-0.731-0.771-3.565-4.188-3.75-4.703c-0.006-0.055-0.02-0.146-0.037-0.253    c-0.003-0.02-0.006-0.037-0.009-0.059c-0.017-0.105-0.038-0.228-0.061-0.365c-0.008-0.044-0.015-0.089-0.023-0.135    c-0.023-0.134-0.048-0.276-0.076-0.428c-0.011-0.061-0.022-0.123-0.033-0.186c-0.024-0.131-0.048-0.264-0.072-0.4    c-0.012-0.066-0.024-0.13-0.036-0.197c-0.028-0.151-0.056-0.302-0.083-0.452c-0.01-0.055-0.02-0.108-0.03-0.162    c-0.031-0.169-0.062-0.331-0.091-0.487c-0.007-0.039-0.014-0.074-0.021-0.111c-0.03-0.16-0.058-0.311-0.083-0.444    c-0.01-0.054-0.017-0.091-0.026-0.14c-0.007-0.036-0.014-0.074-0.02-0.107c-0.01-0.053-0.023-0.121-0.031-0.163l5.556,0.524    l1.947-6.125h1.056l1.605,5.947l5.22,2.383l3.084-0.446l0.639,1.893l1.479,2.148L464.585,291.179z M387.671,97.492l-0.223-0.064    l-0.106-1.472l0.726,0.964L387.671,97.492z M391.59,100.114l-0.989-2.564l-0.109-2.63l-1.72-0.665l-1.506,1.077l-1.636-1.609    l1.628-1.321l0.514-0.954h1.262l0.664-0.593l2.402,2.816l0.183,0.029c1.283,0.2,1.488,0.026,1.61-0.079l0.193-0.185v-0.23    c0-0.174-0.128-0.747-0.382-1.706l2.246-1.677l-2.198-3.77l0.653-0.707l0.915,0.612l2.489-2l-0.865-4.462l2.495-1.786    l2.173-1.999l-1.18-5.545l5.167,0.244l4.119-7.03l0.494-2.22l3.522-2.032l2.424-5.104l-1.243-1.483l11.97-10.417l1.717,1.833    l6.318,2.334l2.559-3.856l6.425,1.936l2.16,3.587l-4.059,10.701l3.982,1.395l3.931-3.484l12.167,6.176l0.201,1.354l4.778-0.872    c2.388,3.946,2.448,3.946,2.794,3.946c0.062,0,0.208,0,6.117-1.194c1.171,2.191,1.318,2.191,1.622,2.191l0.241-0.008l0.15-0.18    c0.109-0.131,1.458-1.575,2.387-2.565l2.564,0.199l-0.415,3.548l-4.076,0.925l-1.933,7.108l2.052,4.248L473,82.416l-1.047,3.035    l-2.169,0.677h-2.638l-1.202,0.917l0.39,3.322l-5.648,0.184l-2.116,3.241l-4.704,1.763l-2.177,5.869l1.873,2.269l-5.573,4.931    l2.849,3.452l-4.871,7.888l-0.397,4.937l2.132,0.484l-0.365,5.778l1.374,3.614l1.422,0.142l1.351-0.915l0.371,0.543l-0.411,2.122    l0.646,1.315l-3.151,2.697l-1.93,4.819l-3.531,2.591l-2.952-1.088l-2.137,0.499l-2.514-4.454l-5.363,0.23l-3.331-3.521    l-5.351,0.418l-3.719-3.979l3.934-4.598l8.76,0.499v-7.439l-7.714-4.044l-3.647-0.413l-3.003-6.028L413,113.02l-1.187-1.458    h-3.968l-0.913-5.872l-5.975,3.072l-3.54-4.047l-6.521,1.189l-2.133-0.87L391.59,100.114z M368.366,97.138l2.977-2.916    l3.518,4.037l-1.884,2.599l2.831,2.872h5.876l1.904-1.645l2.863,3.035l0.896,0.375l-0.026,0.046l3.472,1.397l6.247-1.139    l3.681,4.208l5.438-2.795l0.832,5.349h4.349l1.069,1.314l3.323,1.111l3.063,6.15l3.918,0.404l7.093,3.719v5.776l-8.197-0.466    l-4.838,5.653l4.263,4.56l-2.042,4.339h-5.993l-6.147-1.7l0.794-4.888l-2.349-1.159l1.262-3.469l-2.373-3.327l-6.278,2.236    l-2.535-3.066l-5.675-0.168l-6.51,2.411v5.1l-3.758,3.699l-3.052-1.047l-4.396-0.641l2.703-5.163l-2.346-4.085l-5.088,1.875    l1.026,4.976l-4.478,3.985l-2.543-2.307l1.004-2.737l-0.576-2.027l-5.632,0.361l-4.625-6.807l1.678-4.792l-2.013-6.074    l3.551-3.167l-0.365-5.055l0.849-1.915l-1.364-1.103l-0.712-2.704l0.974-1.665l-1.215-1.493l-1.512,0.999    c-0.268-0.071-0.489-0.128-0.671-0.175c0.462-0.501,1.177-1.255,1.853-1.958l1.542-0.981l0.566-2.487l-0.797-0.253v-0.588    l5.107,0.591l0.887-0.333l1.629,1.225l1.399-0.24L368.366,97.138z M280.55,35.84l0.075-0.005    c2.309-0.167,8.354-0.603,8.573-0.612c0.222,0,0.335,0,4.731-3.617l3.221,2.802l5.059-4.087l13.975-0.325l4.973-2.72l9.227,3.248    l0.876,4.229l0.453-0.051c3.044-0.343,7.554-0.848,8.292-0.924c0.427,0.256,2.05,1.387,3.521,2.438l1.545,1.962l-2.625,4.326    l-7.14,0.758l-2.752,1.972l-1.046,5.928v3.266l-5.288,0.07l-7.033-3.418l0,0l0,0l-4.785,6.401l-3.729,0.26l-2.566-1.707    l1.729,5.678l-0.574,4.035l-8.267,0.536l-2.095,3.502l3.765,4.366l4.807-3.611l0.869,0.985l-2.065,3.308l3.178,2.647    l-0.831,2.825l-6.413-0.223l-1.146,3.788l-3.343-3.611l-3.756,3.169l-4.889-3.982l-0.165-3.941l-2.455-0.679l-0.429-7.188    l-6.055-0.236l-2.9-5.865l-3.495-0.927l-9.597,2.077l-5.943,0.492l-3.813-6.297l0,0l0,0l-0.876,0.102l3.31-8.435l2.257-2.788    l3.512,0.452l1.161-1.403l-1.144-2.182l0.107-0.741c0.149,0.007,0.284,0.012,0.404,0.016s0.228,0.005,0.323,0.005    c0.573,0,0.721-0.059,0.821-0.142c0.367-0.194,2.851-1.302,4.381-1.977l0.427-0.188l-0.691-1.914l0.561-2.51l7.706-0.274    L280.55,35.84z M131.55,19.23l9.623-0.255l5.569,2.064l5.303-2.045l4.928,2.904l5.907-2.2l3.233,1.761l8.603-2.262l4.75,2.008    l6.791-0.364l5.213-2.434l4.852-4.263l3.886,3.386l3.367,4.487l3.995,0.861l10.075-0.808l9.238,1.379l3.26,4.763l4.29-0.268    l4.276,2.542l8.183-0.16l8.612,3.932l9.15-0.291l3.129,1.054l-0.61,2.732l0.473,1.309c-2.863,1.265-3.742,1.676-4.038,1.835    c-0.209,0.019-0.898,0-1.461-0.033l-0.459-0.027l-0.285,1.968l0.986,1.879l-0.385,0.466l-3.519-0.453l-2.657,3.283l-3.612,9.139    l-1.271,0.171l-0.344-0.788l0.54-5.215l-0.61-4.534l-5.402-0.298l-2.58,4.768l-5.591-0.395l-1.697,5.692l-2.84-1.152    l-3.442,2.449l-5.017-0.091l-2.754-3.406l-1.887,5.866l-5.204-1.122l-1.063,2.885h-2.86l-0.812-1.562l-2.716-0.481l-0.087,0.015    c-0.562,0.099-1.186,0.202-1.542,0.253c-0.067-0.253-0.146-0.678-0.195-1.079l-0.085-0.685l-5.974,2.818v3.625l-1.952,1.265    l-4.773-1.673l-4.751-3.044v-4.226h-6.021l-1.6,3.82l-6.178-1.928l-5.297,0.603l-2.423-2.149l-6.012,4.381v4.071l-3.776,2.338    l-10.565-1.136l-2.12,2.966l-3.291-2.643l0.679-3.973l-5.05-0.889l-2.235-3.406l-0.434,0.397    c-0.841,0.771-1.339,1.265-1.634,1.595c-0.248-0.271-0.595-0.673-0.925-1.07l2.688-4.282l6.1-1.121l2.919-3.798l-3.441-4.875l0,0    l0,0l-4.688,5.201h-0.825v-5.399l-6.178-2.158l0.16-5.003l-3.137-1.699l-0.782-7.094l6.345-5.769l0.284-4.075L131.55,19.23z     M120.513,138.686l-5.75-0.368l0.129,7.378l-2.822-0.202l-3.195,3.417c-3.904-0.824-4.018-0.824-4.08-0.824    c-0.086,0-0.192,0-3.792,1.103l0.079-2.118l-2.517-1.106l-2.264,2.162l-4.616,0.167l0.185-3.562l-6.599-2.424l-6.891,3.135    h-2.328v-2.325l-1.951-2.298l-1.833,2.158l-0.584,1.409l-0.521,0.063l-1.127-1.183l-1.089,3.619l-4.602,2.36l-3.896-1.12    l-0.788-4.267l-0.854-3.448l1.656-2.818l5.093-2.365l1.103-2.502l-0.715-4.313l-4.491,0.418l-1.733-0.779    c0.148-4.75,0.025-4.877-0.144-5.051l-0.156-0.152l-0.206-0.004c-0.149-0.003-2.885-0.137-4.688-0.227l-0.303-0.015l-2.299,3.917    l-4.369,1.068l-3.981-1.821l-3.828,2.865l-6.518,0.573l-0.105,2.654l-3.042,1.887l-2.781,2.561l-3.831,1.8l-2.212,2.538    l-1.132-2.411l0.456-13.867l3.31,0.817l1.157-2.396l-1.793-3.434l11.654-6.5l-4.213-3.529l-3.929,2.942    c-1.069-0.431-2.185-0.902-2.64-1.124c0.023-0.629,0.083-2.136,0.107-2.74l10.469-6.89l-1.981-3.359l-7.511,4.527l-1.09-0.111    l-1.309-4.055l-3.819-2.371l2.408-1.996l0.621-3.383l0.35-0.093l-0.516,2.316l1.583,2.19l4.271-0.935l-1.383-3.629l2.979-3.011    l0.037-4.358l-4.201-1.162l-3.092,2.063l-0.349,3.219L20.3,88.079l-0.67-0.673l-4.347,4.221l-2.728-5.46l2.672-7.99l2.783-0.406    l2.361-3.508h3.852l0.606-4.763l-2.563-1.827l-2.336,3.471l-4.638,0.163l-2.167,3.954l-2.509-3.054l0.806-4.328H9.898    L9.43,66.412l2.675-2.34l-3.037-3.459l-4.904,0.291l-1.1,2.566L1.266,60.61l4.763-4.887l-2.693-4.65l2.774-2.481l2.808,1.7    l3.671-4.09l-2.252-2.495l-1.804,2.388C8.358,46.013,8.2,45.932,8.09,45.869c0.012-0.303-0.014-0.828-0.107-1.793l2.267-3.375    h2.593l3.824,2.284l2.814-4.682l4.06,1.542l0.667-1.607l-1.861-3.304h2.352l2.093-2.611h2.114l0.739-1.028l2.015,2.839    l6.817,0.687l2.848-1.835l4.59,1.497l5.092-4.42l6.923,2.197l0.494-4.328l2.478,0.308v3.451l3.583,3.237l0.564-6.095l1.451-2.93    l-1.211-0.762l-2.221,0.877l-4.522-4.465l-0.086-5.257l6.267-0.944l1.5-3.75l5.856-1.739l0.093-0.213    c0.771-1.766,1.657-3.71,1.974-4.291c0.803-0.047,3.163-0.202,4.274-0.275l0.215-0.014l2.472-2.984h2.534l0.226,2.392    l-1.692,1.92l0.039,0.235c0.411,2.458,0.575,2.495,0.902,2.567l0.108,0.012c0.13,0,0.371,0,4.375-1.92l0.196-0.094l0.754-2.42    l5.623-3.607l0.331,0.186L93.648,2.87l0.784,1.415l1.743,0.134l2.295,2.557l7.695-0.847L112,9.697v3.158l6.303,5.993l9.921-0.22    l0.661,1.243l-0.266,3.815l-6.425,5.841l0.896,8.121l3.054,1.654l-0.163,5.121l6.201,2.166v5.689h2.271l4.148-4.601l2.294,3.25    l-2.236,2.909l-6.155,1.13l-3.305,5.265l0.228,0.278c1.602,1.956,1.751,1.956,1.999,1.956h0.5v-0.375    c0.175-0.225,0.732-0.781,1.308-1.324l1.825,2.781l4.496,0.792l-0.544,3.183l-2.72,4.292l0.514,3.689l-3.667,5.113h-3.425    l-4.053,4.779l2.945,2.504l-4.299,3.359l1.804,2.704l-3.22,4.364l6.263,3.578l0,0l0,0l3.102-3.655l4.983,2.667l2.03,4.173    l-2.405,1.647l1.833,5.526l3.456,0.398l-0.691,5.442l-2.313,2.661l-3.991-0.357l-4.672,5.144l-6.057,6.466l3.672,2.763    l-1.575,4.634l-3.426,1.202L120.513,138.686z M130.48,268.948l3.256-2.801l0.939-3.539l-3.48-4.749l3.542-5.33l-2.806-5.805    l3.938-5.966l-3.17-6.239l2.627-8.855l-2.963-2.134l0.215-2.867l-4.31-8.111c2.122,0.053,4.25,0.125,4.747,0.178l0.212,0.031    c0.165,0,0.472,0,4.656-2.694l0.255-0.164l-0.455-5.032l9.106-9.043l5.408-0.196l8.392-7.974l4.698-0.438l0.692-8.44l5.969-4.263    l0.216-3.871l-7.562-7.997l-6.397-0.587l-3.728,3.272l-4.201-4.581l0.208-4.132l2.678-5.255l-2.688-3.337l1.885-4.255    l-3.177-3.216l-7.099,2.702l-3.49-4.079l-5.124,2.981c-3.177-3.122-3.518-3.027-3.774-2.955c-0.16,0.033-1.103,0.092-1.727,0.132    c-0.128,0.008-0.254,0.016-0.376,0.024l1.681-4.946l-3.361-2.529l5.301-5.659l4.344-4.782l4.005,0.359l2.847-3.276l0.856-6.747    l-3.827-0.441l-1.394-4.206l2.495-1.709l-2.548-5.24l-5.981-3.201l-3.087,3.637l-4.566-2.608l2.97-4.024l-1.679-2.517    l4.534-3.544l-3.119-2.651l3.107-3.664h3.476l4.199-5.855l-0.519-3.722l2.278-3.594l3.908,3.14l2.395-3.352l10.326,1.111    l4.542-2.813v-4.119l4.951-3.607l2.154,1.911l5.531-0.629l6.846,2.136l1.693-4.046h4.356v3.772l5.261,3.371l5.396,1.905    l2.82-1.827v-3.535l4.166-1.965c0.193,1.09,0.44,1.311,0.815,1.311c0.231,0,1.345-0.189,1.901-0.286l2.057,0.364l0.864,1.664    h4.165l1.003-2.725l5.241,1.13l1.598-4.966l1.884,2.33l5.813,0.105l3.263-2.322l3.351,1.359l1.783-5.978l5.434,0.384l2.585-4.777    l3.943,0.218l0.484,3.596l-0.555,5.358l0.75,1.722l3.367-0.432l3.802,6.277l6.624-0.552l9.426-2.036l2.824,0.75l2.963,5.991    l5.743,0.223l0.417,6.997l2.442,0.675l0.153,3.663l5.881,4.79l3.66-3.088l3.88,4.191l1.428-4.721l6.418,0.223l1.235-4.199    l-3.012-2.51l1.998-3.201l-1.973-2.237l-4.799,3.604l-2.683-3.111l1.455-2.432l8.554-0.555l0.72-5.059l-0.981-3.221l0.526,0.35    l4.526-0.315l4.565-6.106l6.502,3.16l6.513-0.072v-0.006l1.223-0.028l4.217-3.186l6.818-0.062l3.464,5.208l-1.278,2.626    l2.795,4.918l3.978-0.252l0.185,0.872l-0.908,1.225l1.562,2.441l2.243,0.381l-0.191,2.057l-2.148,1.267l-4.999-0.588    l-0.837-2.516l-2.25-1.049l-4.607,0.427l-2.32,6.297l4.39,2.595l2.679-2.51L348.865,85l4.915-1.48l4.29,2.328l4.292,6.219v2.003    l-0.694,0.119l-1.723-1.295l-1.174,0.44l-5.982-0.692v2.441l0.618,0.196l-0.271,1.189l-1.246,0.793l-0.092,0.075    c-2.59,2.69-2.59,2.742-2.59,2.991l-0.057,0.496h0.5c0.121,0.02,0.911,0.222,1.605,0.406l0.217,0.058l1.131-0.748l0.207,0.253    l-0.834,1.425l0.902,3.422l1.023,0.827l-0.64,1.442l0.348,4.812L349.936,116l2.113,6.374l-1.731,4.947l5.229,7.696l5.396-0.346    l0.267,0.938l-1.124,3.064l3.708,3.363l5.58-4.967l-0.969-4.699l3.488-1.286l1.652,2.877l-3.103,5.927l5.7,0.822l3.548,1.227    l4.498-4.427v-4.822l5.675-2.103l5.027,0.149l2.693,3.256l6.226-2.218l1.629,2.284l-1.389,3.817l2.489,1.229l-0.819,5.043    l7.077,1.958l6.829,0.018l2.333-4.957l4.825-0.377l2.905,3.072l-2.481,4.386h-4.565l1.268,3.247l-2.262,3.385l4.984,5.735    l-1.803,4.44l-4.517,1.669l-2.098,4.027l-5.544,0.62l2.735,9.414l1.462,0.244l-4.327,6.194h-5.784l-2.663,8.52l1.979,7.553    l3.394-0.398l1.133,2l0.329,5.098l-0.554,0.347l-3.979-3.679l-2.841,3.475l-3.73-2.048l-1.038,2.901l-3.809,0.794l-1.201-2.732    l-4.581,2.045l-4.065-5.234l-2.855-0.056l0.957-3.563l-8.536-5.735l-7.746,1.747l-4.699-6.734l-4.194,4.297l-6.912,0.614    l-5.574-4.108l-4.9,4.834l-9.536,3.362l-4.764,5.777l-5.262-0.293l0,0h0l-3.4,5.302l-2.609,0.611l-3.627,5.679l-1.964,0.26    l-5.144,2.742l-3.608,6.983v2.78l-4.793,3.064l-2.332,0.569l-5.372,6.407l-0.376,5.805l-3.053,1.145l-2.37-1.763l-1.429,0.455    l-0.587,2.97l-2.412,3.663l1.36,7.264l-5.618,3.21l-3.644,6.562l-3.688,0.287l-2.933,3.693l0.55,1.28l-1.227,1.003l0.595,0.53    l-1.261,1.107l-4.193-0.142l-0.48-1.493l0.49-1.281l-1.15-2.743l-7.276,0.541l-0.568,4.249l-2.074,1.193l-1.712-0.101    l-1.927,1.125v1.986l-0.958,2.145l-3.891,1.155l-0.283-2.253l-1.187-0.482l-0.265-2.531l-2.709,2.49l-4.914,4.794l-3.493-3.243    l-3.888,2.747l-2.869-1.923l-0.51-2.322l-1.379-1.147l1.246-3.577l-0.628-1.289l1.181-1.453l-0.352-4.333l-2.022,1.627    l-0.845,1.5l-3.456,0.414l-2.903,3.537l-5.956-0.27l-6.233-6.746h-4.761l0.454-4.583l-4.262,0.037l-4.18,4.728l-3.112-0.136    l-1.971-3.978h-2.622l0.341-1.044l-0.538-3.182l-2.95-4.691l-6.843-3.35l-1.667,2.584l-4.827-0.2l-1.557,4.479l-3.278,0.158    l-1.42,2.302l-2.743-0.366l-4.423,2.492l-0.704,4.68l-5.548,2.543l-1.532-2.403l-1.706,0.356l-1.59,1.562l-3.567-0.2    L130.48,268.948z M111.657,426.744l-5.375-8.156l-4.512-1.63l-5.186-10.371l5.043-10.309l-0.143-0.234    c-0.856-1.4-1.786-2.981-2.021-3.471c0.334-0.871,1.49-4.049,2.086-5.691c2.785-1.17,6.832-2.856,7.36-3.039    c0.289-0.037,0.642-0.472,4.251-5.562l3.699-0.284l-1.277-7.429l6.112-7.001l-5.15-6.507l-3.164,1.546l-2.521-0.634l-0.194-5.866    l-5.722-0.6l-2.056-2.889l2.877-4.298l-0.379-0.284c-1.654-1.24-4.299-3.248-4.856-3.732c-0.028-0.177-0.085-0.504-0.201-1.155    c-0.143-0.804-0.375-2.113-0.411-2.463c0.198-0.426,1.331-2.357,2.374-4.083l0.156-0.258l-2.366-3.924l-3.043,0.063    c-0.877-3.854-1.001-4.209-1.371-4.242c-0.391-0.231-1.966-1.329-3.03-2.071c-0.866-0.604-1.42-0.99-1.659-1.146    c-0.242-0.617-0.871-3.861-1.414-7.026l11.731,3.458l3.385-2.749c6.236,2.728,6.333,2.728,6.465,2.728    c0.229,0,0.357,0,2.869-2.409l6.035,0.27l0.069-0.442c0.637-4.092,1.612-10.187,1.881-11.474c0.465-0.14,1.511-0.48,3.975-1.313    l0.274-0.093l2.837-14.373l-4.108-6.625l-1.88,0.195l-3.2-4.817l1.844-4.552l5.82-0.315l2.147-1.87l1.641,2.927l4.555,0.256    l1.697-1.666l0.743-0.155l1.629,2.556l6.832-3.132l0.712-4.731l3.707-2.089l3.054,0.408l1.483-2.405l3.427-0.165l1.535-4.416    l4.656,0.192l1.495-2.318l5.793,2.835l2.672,4.184l0.479,2.838l-0.693,2.121h3.38l1.958,3.952l4.179,0.182l4.2-4.751l2.703-0.023    l-0.453,4.573h5.427l6.215,6.726l6.867,0.311l2.966-3.613l3.575-0.428l0.915-1.716l0.472-0.379l0.166,2.05l-1.33,1.638    l0.726,1.488l-1.336,3.837l1.648,1.372l0.398,1.817l-2.959,1.622l1.05,9.943l-2.766,4.941l6.733,3.158l-2.663,4.619l5.522,2.912    l3.566-2.934l1.832,1.659l-1.104,3.673l2.422,1.818l-4.2,10.614l8.215,8.507l10.951,8.138l9.714-6.365l2.172-0.054l0.535,2.98    l-4.423,7.656l1.54,6.279l4.66,3.248l-1.592,0.997l-2.495-2.613l-4.467-1.086l-5.358,7.499l1.767,4.139l-1.285,1.559l-5.85-1.432    l1.152,6.766l5.565,1.117l0.242,4.928l-5.312-0.561l-3.27,10.76l-2.254,0.824l-1.417-1.041l-8.292,1.812l0.064,4.419    l-7.955,3.233l0.339,4.091l-4.674-0.183l-2.176,4.855l-6.057,4.266l-4.351-0.376l-1.589,7.062l5.794,10.071l-1.487,4.725    l-10.871,6.094l-1.869-2.809l4.148-3.247l-2.25-3.592l-9.314,1.358l-0.798,4.282l-3.398,1.938l1.498,2.573l-3.982,2.604    l-0.583,4.218l-3.473-1.678l-8.287,4.257l-8.081-3.872l-1.866-4.483l-4.553-0.954l-2.805,3.422l-6.22-1.201l-0.336-2.86    l-5.57-3.723l-7.529-0.091l1.53-2.735l-9.565-4.399l-0.926-2.286L111.657,426.744z M440.144,493.221l-1.44,2.551l-0.725,3.22    l-5.698,4.345l-1.139,4.517l-4.021,1.41l3.327,2.18l-5.137,14.98l-3.356,0.889l0.354,1.862l-1.46,1.1l-1.479,2.027l-0.365,4.68    l-3.679,0.548l-4.39,5.958h-2.902l-3.008-4.393l-4.661-4.268l-0.183-0.008c-1.692-0.064-10.141-0.389-10.272-0.389    c-0.107,0-0.834,0.088-2.159,0.262l-0.136,0.019l-5.174,4.073l0.067,4.17l-1.932,1.621l-7.074,2.204l-3.059-2.849l-1.128,2.009    l-3.426-3.846l-5.523,0.96l-3.196-1.24l-3.279,1.062l-13.939-0.192l-9.634,4.96l-5.465-4.961l-9.292,0.131l-1.741,1.023    l-3.275-1.762l-6.482-0.202l-4.438,2.582l-6.004-3.005l-4.348,2.725l-8.595,0.284l-9.664-0.429l-3.047,2.405l-4.383,7.753    l-5.379,0.529l-0.662,4.043l-5.804,2.539l-10.936-1.878l-6.021,3.755l-4.761-0.322l-3.792,3.527l-5.073,0.878l-1.473,1.925    l-1.117,3.985l-3.552,3.679l-1.209,3.431l-2.289,4.303l-3.743-0.507l-2.715,3.498l0.124,0.274    c0.34,0.754,0.843,1.633,1.414,1.874c0.087,0.489,0.016,1.949-0.123,3.282l-2.646,0.363l-7.293,3.942l-4.462-4.337l-3.462,0.062    l-12.262-11.085l-2.317,1.554l-1.998-2.227l-3.063,2.054l-1.229-5.97l-2.089-2.522l-1.678-0.091    c-0.438-1.051-0.889-2.198-0.966-2.5c0.03-0.205,0.107-0.809,0.317-2.704l0.015-0.139l-1.241-2.677l-2.192,0.654l-2.88-5.107    l-0.298-2.665l1.248-4.005l-2.546-6.065l-4.864-0.29l-3.599-8.814l3.979-2.786l-3.579-7.923l-0.099-4.568l-3.71-3.2    c-0.427-0.317-4.179-3.109-4.503-3.322c-0.231-0.129-4.627-2.808-6.295-3.824c-9.248-5.837-10.807-6.795-11.133-6.975    l0.004-0.006c-0.173-0.104-1.404-1.072-2.495-1.947l-0.259-0.208l-0.292,0.158c-0.69,0.372-1.466,0.779-1.818,0.947    c-0.852-0.544-4.389-2.979-6.624-4.529l-0.135-0.094l-11.583,0.326l-5.194-0.102l-3.993,2.859l-1.672-5.248l-1.899-4.793    l-0.463-1.231l1.856-1.696l-1.776-5.604c0.322-6.815,0.269-6.953,0.237-7.03c-0.035-0.127-0.063-0.229-3.209-4.021    c4.674-6.781,4.674-6.859,4.674-7.043c0.015-0.249,0.538-5.357,0.904-8.906l7.394-3.402l1.723-9.305l4.852-4.164l3.894,1.669    l3.93-4.726l2.967,2.226l3.486-1.782l0.027-0.271c0.226-2.25,0.611-5.915,0.71-6.408c0.146-0.283,0.633-1.294,2.452-5.229    l8.308,3.821l-1.822,3.259l8.914,0.106l4.939,3.301l0.369,3.13l7.522,1.453l2.798-3.414l3.444,0.722l1.811,4.349l8.873,4.253    l8.285-4.257l4.262,2.059l0.709-5.128l4.396-2.874l-1.467-2.522l2.924-1.668l0.751-4.034l7.962-1.161l1.426,2.275l-4.168,3.263    l2.896,4.352l12.025-6.742l1.738-5.521l-5.819-10.112l1.312-5.829l3.844,0.331l6.58-4.633l2.012-4.49l5.127,0.2l-0.372-4.483    l7.907-3.214l-0.062-4.286l7.053-1.541l1.191,0.874l2.308,3.736l5.947-0.72l1.48,1.782l1.034,6.424l8.833,1.149l-0.229,3.06    l2.161-1.19l2.91,1.439l0.608,4.589l2.349-1.296l2.621,0.557l3.362,6.401l2.146-0.556l2.395,0.438l4.527,4.151l3.506-3.369    l13.913,0.564l5.224,3.024l2.564-0.976l4.241,0.384l0.827-4.597l5.873-1.167l9.242,3.624l0.811-4.97l0.886,1.525l0.452-1.356    l2.441,4.176l8.327-2.225l0.018-0.365c0.079-1.664,0.19-3.491,0.269-4.266c0.496,0.023,1.479,0.062,3.462,0.128l1.9,2.478    l2.077-0.93l3.881-0.117l2.724,2.621l3.375-4.233l0.695,0.369l3.563,4.812l3.73-5.212l4.424,2.165l6.356-6.297l2.962,3.901    l5.749-3.512l2.44,2.496l-0.27,7.304l5.148-0.354v8.476h4.006l0.797,1.458l-2.457,2.24l0.457,2.798l-6.563,7.044l0.877,3.483    l3.534-0.303l3.319,3.608l5.044-0.395l2.085,1.285l3.189,6.896l10.425,3.454l7.797,0.025l-3.078,3.705v11.877l-0.778,1.93    l3.701,3.081l7.404,11.696l6.206-0.396l6.798,4.956L440.144,493.221z M493.83,457.07l-2.179,2.271l-0.217,3.104l-3.402,1.889    l6.468,8.365l2.53-0.35l0.827,1.447l-1.744,2.315h-4.415l-5.71,2.822l-5.846-2.27l-0.158,0.043    c-2.258,0.609-4.82,1.274-5.091,1.306c-0.419,0-0.841,0.418-1.234,1.208l-0.79,1.307h-2.167l-1.279-2.856l-9.902,1.5    l-3.226,3.545l-2.583-0.382l-3.59,3.231l0.44,3.661l-4.074-0.467l-4.602,3.256l-7.37-5.374l-5.974,0.382l-7.13-11.263    l-3.304-2.782l0.542-1.344l0.036-11.799l4.209-5.066h-9.69l-9.938-3.292l-3.133-6.777l-2.242-1.382v-1.467l7.708-5.633    l-0.644-4.823c2.759-1.848,3.806-2.601,4.204-2.983c0.409-0.029,1.679-0.017,2.757,0.017l0.354,0.011l2.162-5.593l3.117,1.989    l6.004-0.652l6.009-6.558l6.363-1.135l0.483,4.457l1.966,1.465l4.943-0.32l0.132-0.241c0.744-1.362,1.556-2.82,2.16-3.876    c0.363-0.633,0.651-1.122,0.805-1.357c0.684-0.038,2.568-0.157,3.459-0.214l0.509-0.032l-1.25-14.824l3.254-3.48l-0.292-4.456    l2.71-2.419l3.055,4.579l3.887-7.523l5.474-0.927l2.457,1.83l-0.7,2.577l1.64,1.509l2.912-1.075l3.229,4.114l0.776,2.758    l-1.516,7.902l-4,2.788l0.631,9.213l5.194,0.574l1.964,1.626v3.795l-2.5,6.169l-1.42,5.873l3.987,4.216l1.092,2.969l8.142,10.518    l4.525,1.155L493.83,457.07z M557.032,256.667l-0.549,4.873L551.635,269l-7.119,5.163l-1.411,8.371l-5.665,3.056l-3.972,7.812    l-0.852,4.053l-5.936,6.472l-4.935,12.974l-4.395,5.116l-1.358,12.853l-2.702,3.813l0.431,5.896h2.994l-0.066-0.559    c-0.202-1.713-0.376-3.722-0.354-4.396c0.17-0.038,0.422-0.079,0.685-0.111l0.561,0.775l-0.361,4.503l3.668,2.356l0.443,3.404    l1.325,1.176l-1.09,4.025l5.134,12.235l3.363,0.624l4.588,7.898l7.729,2.441l5.966,0.023l0.485,0.505l-0.309,1.816l1.432,2.823    l0.847,0.903l-3.206,1.733l-0.534,2.848l-1.525-0.253l-2.816,0.394l0.13,3.326l-3.034,0.467l-5.428,4.017l1.177,4.682    l-14.455,2.86l-9.382,9.114l-1.106,3.228l-1.396,0.83c-1.136-1.202-1.413-1.086-1.567-1.009c-0.218,0.052-0.49,0.117-1.527,2.37    l-0.092,0.199l3.246,7.796l-1.478,1.527l-3.366-0.288l-6.428,5.918l0.055,0.275c1.165,5.825,1.626,8.028,1.913,8.881    c-0.464,0.622-2.402,2.896-4.155,4.91l-2.395,5.586l0.055,0.318l-3.764-0.961l-7.809-10.051l-1.101-2.993l-3.791-4.066    l1.27-5.274l2.515-6.188l0.037-4.552l-2.557-2.116l-4.661-0.516l-0.535-7.814l3.869-2.696l1.637-8.533l-0.749-2.664l4.024-1.782    l1.592-4.458l-2.107-4.315l1.049-4.288l-2.217-10.112l-3.712,1.545l-5.633-0.125l-9.699-7.274l0.689-5.65l5.237-5.915    l0.438-9.016l-2.609-2.463l-9.062-0.973l-10.086-7.474l1.378-8l6.707-9.644l2.989,2.156l3.511-2.276l-1.017-4.855l5.065-5.608    l-0.606-9.117l2.64-1.453l-0.031,0.167l2.978,0.67l3.967-2.817c3.92,1.321,5.604,1.881,6.349,2.119    c-0.332,0.927-1.157,3.102-1.704,4.527l-0.136,0.353l4.136,3.093l5.759-3.018l-2.766-3.255l1.853-5.414l6.955-4.844    c2.053,0.057,3.211,0.086,3.88,0.085c0.861-0.002,0.913-0.053,1.023-0.162l0.142-0.15l0.01-0.196    c0.004-0.07,0.033-0.333,0.062-0.599c0.035-0.326,0.068-0.654,0.068-0.707c0-0.201,0-0.299-1.509-2.085l1.228-1.337l2.223-7.725    c1.304-0.035,5.655-0.15,5.777-0.152c0.194,0,0.246,0,4.885-3.018l0.431-0.28l-1.972-2.853l7.652-6.514l-5.081-5.832l3.004-4.559    l-0.209-6.491l-5.354-0.979l1.184-4.783l3.159,2.92l4.029-4.318l0.581-4.69l3.755-4.481l0.355,5.09l9.738,2.348l0.884,2.393    l3.79-2.991l2.961,0.028l0.954,0.028l3.987,0.588l2.126,2.181l-1.464,3.175l2.106,0.259l3.626,3.162l3.387-1.287l2.746,4.179    l2.08,1.891l-0.32,2.527l0.706,0.086L557.032,256.667z M665.463,169.042l-5.59,1.897l-3.757,3.432l-3.066,5.738l-0.266,2.985    l-6.011,4.083l-6.059,0.535l-6.679,2.867l-5.143,1.928l-4.809,1.658l-6.864,0.484l-8.25,5.386l-6.384,0.321l-5.489,4.68    l-7.604,0.651l-6.45,6.748l-2.356,2.512l-2.127,4.711l-4.198,2.757l-3.552,4.677l5.751,4.397l-1.487-4.09l0.338-0.448    l2.165,0.592l0.087,1.318l3.417,4.154l2.599-0.481l-1.153,2.356l-6.32,2.674l-1.728,3.541l-0.611,2.161l-5.683,2.527    l-0.489-1.344l4.361-1.847l2.049-0.222l0.633-2.583l-3.257-0.483l-5.176,1.328l-4.941,7.117l-0.406,1.488l0.087-0.686    l-2.337-2.101l-3.152-4.796l-3.576,1.359l-3.405-2.969l-1.051-0.129l1.179-2.556l-2.842-2.915l-4.378-0.643l-0.223-0.007    l0.997-1.835l4.632-2.599l0.746-5.494l-2.484-3.037l3.882-5.655l-2.129-4.884l-3.885-3.046l0.759-3.543l4.492-2.73l0.259-4.053    l4.959-5.419l-4.334-7.789l1.446-6.225l-1.504-3.549l4.231-2.472l0.577-3.164l1.191-1.899l-2.395-0.545l-1.476,1.645    l-0.985,0.064l-3.116-6.054l5.248-6.269l3.238,0.513l0.6-2.453l-0.713-0.611l1.003-1.126l6.445-5.744l-0.676-7.027l4.96-3.481    l0.738-13.883l1.922-7.716l-0.527-7.847l-3.502-5.567l4.032-5.795l-0.264-5.965l-2.908,1.309l-0.551-0.05l-1.941-7.481    l-0.178-0.001l-2.037-2.773l-0.185-3.792l0.766-4.521l5.231-0.378l3.232,2.846l3.299-0.355l1.737,1.444l12.737,3.327l0.237,4.181    l10.528-2.186l6.317,7.517l-0.326,4.708l2.546,1.947l-1.907,2.362l1.951,4.122l4.21,0.84l2.603-2.5l7.505-3.048l5.486,0.405    l6.991,2.599l0.698,2.247l2.327,4.179l0.318-0.024c1.501-0.113,3.797-0.283,3.96-0.288c0.377,0,0.453,0,1.837-3.16l5.198-1.108    l4.707-2.194l6.197,2.603l3.232,0.985l5.461,3.185l2.288-2.121l2.5,0.349l2.959,0.648v-4.847l2.003-1.777l4.349,0.192    l2.785-2.453l4.954-1.684l6.455-0.031l2.507,2.993l0.379-0.288c0.673-0.511,1.497-1.111,1.563-1.162l0.075-0.015    c0.362-0.046,2.093-0.153,3.782-0.245v2.123l-0.833,1.568l1.538,3.119l2.739-1.047c1.861,1.788,1.959,1.788,2.184,1.788    c0.052,0,0.182,0,2.958-0.505l-1.702,5.626l-2.92,1.575l-4.037-2.424l-3.371,5.13l2.766,7.184l2.687-0.13l1.826,2.896    l-0.807,3.416l2.037,3.231l-1.489,7.766l-5.476,2.251l-1.043,4.947l-9.323,5.562l-5.332,6.202l-15.525,6.499L665.463,169.042z"></path>			<path style="fill:#FFFFFF;" d="M633.46,384.278l-1.937-0.721l-2.236,2.078l-0.294,0.518l-0.612-1.344l-1.165-0.695l0.763-0.633    l-2.573-1.74l-0.764,0.554l-0.498-0.544l0.733-1.513l-0.935-1.251l-1.763,0.387l-0.105,1.933l-3.848,4.233l2.008,2.82v2.539    h2.256l0.262-2.165l1.943-1.701l-0.187-0.938l0.258-0.037l2.531,1.855l0.676,1.619l1.751-0.168    c1.572,0.413,1.707,0.413,1.771,0.413c0.504,0,0.623-0.298,0.679-2.041l1.364-0.236v-2.104l-0.587-0.101L633.46,384.278z     M623.136,380.188l0.391-0.086l0.185,0.247l-0.658,1.356L623.136,380.188z M628.612,388.466l-0.5-1.195l-3.084-2.26l-1.707,0.244    l0.28,1.407l-1.797,1.572l-0.201,1.665h-0.369v-1.859l-1.726-2.424l3.535-3.89l-0.097,0.2l1.559,1.7l0.919-0.665l0.888,0.602    l-0.825,0.684l2.112,1.262l1.333,2.927L628.612,388.466z M632.539,386.658l-1.342,0.232l-0.01,0.41    c-0.012,0.474-0.04,1.021-0.072,1.385c-0.33-0.08-0.795-0.198-1.221-0.311l-0.086-0.022l-0.835,0.079l1.062-2.125l1.719-1.597    l0.315,0.117l-0.613,1.228l1.084,0.185V386.658z"></path>			<path style="fill:#FFFFFF;" d="M634.428,354.005l-2.677,0.065l-0.278-1.358l-0.55,0.21c-0.488,0.186-1.092,0.402-1.144,0.423    c-0.189-0.009-3.191-0.276-5.162-0.454l-0.181-0.017l-2.142,1.489l-2.854,0.652l-2.307-0.442l-0.649,1.692l-1.265,2.243    l-2.294,0.338l0.675,1.461l-1.111,2.441l2.163,1.271l-0.562,0.925l-4.114-0.261l0.021,0.554c0.056,1.431,0.094,3.028,0.072,3.519    c-0.235,0.26-0.614,0.788-1.35,1.864l-0.111,0.162l0.3,2l1.38-0.041l1.722,2.866l1.656-2.34l-0.562-0.627v-0.405l0.528,0.065    l2.571,1.496l0.747-0.941c0.14,0.152,0.26,0.286,0.319,0.359c0.113,0.445,0.638,2.614,0.638,2.615l0.17,0.702l1.538-1.048    l2.192,0.206l0.064-0.476c0.418-3.09,0.528-3.945,0.556-4.198l0.343-0.974l5.909-3.521l0.1-3.639l1.002-0.129l0.614,0.417    l1.521,0.556l1.046-2.21l-1.885-0.285l-0.069-0.415l0.97-0.807l-0.441-0.646l0.258-0.979l1.653-0.492l0.393-1.488l-2.106-0.146    v-0.368L634.428,354.005z M631.485,362.305l-0.084,0.179l-0.495-0.175l-0.172-0.117L631.485,362.305z M632.007,357.28    l-1.033,0.308l-0.519,1.963l0.186,0.272l-0.712,0.592l0.231,1.387l-0.128-0.088l-2.227,0.287l-0.109,3.943l-5.747,3.425    l-0.482,1.367l-0.027,0.135c-0.014,0.163-0.283,2.173-0.494,3.733l-1.595-0.149l-0.641,0.437    c-0.209-0.861-0.476-1.954-0.507-2.057c-0.035-0.096-0.074-0.205-0.922-1.089l-0.396-0.414l-0.925,1.166l-1.911-1.113    l-1.943-0.28v1.919l0.285,0.318l-0.311,0.438l-1.235-2.056l-1.079,0.033l-0.11-0.734c0.415-0.602,0.878-1.252,1.091-1.519    l0.152-0.153c0.167-0.174,0.241-0.25,0.118-3.599l3.613,0.229l1.401-2.31l-2.261-1.329l0.928-2.039l-0.306-0.662l1.456-0.215    l1.537-2.734l0.379-0.98l1.693,0.325l3.154-0.721l2.097-1.413c1.911,0.172,4.92,0.441,5.056,0.441c0.073,0,0.187,0,0.963-0.283    l0.211,1.028l0.206-0.005l-0.409,0.287v1.819L632.007,357.28z"></path>			<path style="fill:#FFFFFF;" d="M710.939,341.525l-0.21,0.079v0.26c-0.026,0.119-0.25,0.76-0.459,1.333l-2.718,2.33l1.141,1.474    l1.242-0.622l2.177,2.091l0.581-2.124l-0.459-1.22c-0.05-0.418-0.081-0.854-0.083-1.12c0.23-0.051,0.483-0.124,0.654-0.176    l0.275-0.084l0.381-1.624l-0.418-0.152C711.241,341.316,711.158,341.372,710.939,341.525z M711.592,346.582l-1.473-1.415    l-1.139,0.571l-0.055-0.071l2.194-1.881l0.045-0.123c0.003-0.009,0.007-0.018,0.01-0.027c-0.041,0.275-0.039,0.761,0.075,1.67    l0.395,1.087L711.592,346.582z M712.24,342.951c-0.229,0.062-0.433,0.109-0.495,0.113l-0.258,0.017l-0.149,0.169    c-0.013,0.014-0.026,0.029-0.039,0.046c0.123-0.338,0.209-0.587,0.271-0.772c0.199,0.062,0.455,0.147,0.715,0.237L712.24,342.951    z"></path>			<path style="fill:#FFFFFF;" d="M738.295,296.821l-7.102-2.405l-4.157,4.31l-5.301-0.599l-3.869-3.899l0.054-2.387l4.799-0.762    l-1.034-4.215l-5.676,1.919l-0.816-1.133l7.915-4.219l-1.26-3.386l-6.49,3.262l-1.386-0.654l-3.195,2.371l-2.827-0.424    l-6.597,5.54h-5.322l-0.15,0.187c-1.127,1.399-2.486,3.088-2.557,3.193c-0.07,0.106-0.13,0.199-0.398,2.402l-5.952,3.717    l-1.109,3.16l-4.263,1.944l-10.549,8.792l6.034,6.659l2.545-0.772l5.433,5.467l1.521-6.132l6.124-2.604l3.131,2.02v3.612    l1.709,1.813l-0.223,4.008l0.334,0.133c4.861,1.932,5.055,1.932,5.17,1.932c0.195,0,6.129-0.26,7.847-0.335l0.905,2.928    l2.943,3.624l0.193,0.027c0.125,0.017,3.078,0.42,3.476,0.457l0.284,0.026l3.337-4.617l5.534-3.711l2.262-10.42l6.909-7.557    l-2.271-3.375l5.469-2.408L738.295,296.821z M735.256,309.999l-6.56,7.176l-2.234,10.29l-5.274,3.537l-3.178,4.343    c-0.628-0.078-2.053-0.27-2.958-0.393l-2.539-3.076l-1.104-3.571l-0.386,0.017c-2.2,0.097-7.961,0.348-8.107,0.359    c-0.27-0.063-2.482-0.917-4.548-1.736l0.207-3.718l-1.732-1.838v-3.76l-4.035-2.603l-7.071,3.007l-1.213,4.892l-4.604-4.634    l-2.515,0.764l-4.909-5.418l9.585-8.01l4.589-2.093l1.133-3.231l6.06-3.785l0.029-0.238c0.111-0.924,0.25-1.964,0.308-2.258    c0.263-0.335,1.44-1.8,2.311-2.881h5.208l6.53-5.484l2.792,0.419l3.047-2.261l1.284,0.606l5.928-2.98l0.566,1.521l-8.153,4.346    l1.918,2.66l5.343-1.807l0.515,2.102l-4.55,0.723l-0.081,3.646l4.416,4.451l6.141,0.693l4.058-4.208l5.949,2.014l1.169,6.134    l-5.834,2.569L735.256,309.999z"></path>			<path style="fill:#FFFFFF;" d="M783.782,278.919l0.67-4.574l-5.28-2.601l-0.99,0.313l-0.184-0.963l0.628-1.816l-1.752-1.496    l-1.893,1.048v1.596l-0.34,0.217l-1.057-1.3l0.797-1.556l-1.904-0.532l-2.381,3.243l-11.848,0.664l-3.701,3.579l3.334,3.186    l-0.186,4.428l5.832,0.514l2.982-2.355l5.288,1.381l6.671,6.04l7.308,1.738l0.575-4.843l2.484-3.276L783.782,278.919z     M785.389,284.444l-0.474,3.999l-5.966-1.419l-6.663-6.032l-6.007-1.569l-3.061,2.417l-4.485-0.395l0.166-3.926l-2.91-2.78    l2.686-2.598l11.947-0.67l2.251-3.065l0.059,0.017l-0.537,1.047l2.031,2.497l1.554-0.991v-1.555l0.771-0.427l0.707,0.603    l-0.493,1.424l0.445,2.329l1.68-0.531l4.267,2.102l-0.668,4.557l4.633,2.417L785.389,284.444z"></path>			<path style="fill:#FFFFFF;" d="M372.538,91.815l2.308-2.392l2.237,3.429l6.656-0.529l0.974-1.79l-1.11-0.903l0.394-1.604    l-2.899-2.05l-1.137-2.751h-1.465l-0.655-1.438l-3.4-0.516l-1.683,0.931l-3.551-2.499l-4.249,1.849l-0.253,4.789l3.388,5.181    L372.538,91.815z M365.924,82.223l3.167-1.378l3.604,2.536l1.933-1.068l2.528,0.383l0.697,1.53h1.44l0.992,2.4l2.579,1.824    l-0.382,1.557l0.957,0.779l-0.318,0.584l-5.524,0.439l-2.599-3.983l-2.856,2.961l-3.485-0.228l-2.936-4.49L365.924,82.223z"></path>		</g>	</g>	<path style="fill:#FFFFFF;" d="M252.401,449.227c-10.18,4.606-17.982,17.61-11.163,31.903c4.714,9.881,10.947,18.777,17.64,27.366  c2.284,2.932,4.798,2.965,6.933-0.147c5.395-7.864,10.756-15.76,15.83-23.833c2.656-4.226,4.212-8.996,4.38-13.304  C285.842,453.408,267.971,442.181,252.401,449.227z M252.498,470.9c0.036-5.357,4.626-9.942,9.89-9.88  c5.205,0.061,9.683,4.604,9.72,9.86c0.037,5.32-4.538,9.979-9.798,9.978C257.022,480.856,252.463,476.229,252.498,470.9z"></path>	<path style="fill:#FFFFFF;" d="M488.509,129.19c-10.18,4.606-17.982,17.61-11.163,31.903c4.714,9.881,10.947,18.777,17.64,27.366  c2.284,2.932,4.798,2.965,6.933-0.147c5.395-7.864,10.756-15.76,15.83-23.833c2.656-4.226,4.212-8.996,4.38-13.304  C521.951,133.371,504.079,122.144,488.509,129.19z M488.606,150.864c0.036-5.357,4.626-9.942,9.89-9.88  c5.205,0.061,9.683,4.604,9.72,9.86c0.037,5.32-4.538,9.979-9.798,9.978C493.13,160.82,488.571,156.193,488.606,150.864z"></path>	<path style="fill:#FFFFFF;" d="M611.226,119.79c-10.18,4.606-17.982,17.61-11.163,31.903c4.714,9.881,10.947,18.777,17.64,27.366  c2.284,2.932,4.798,2.965,6.933-0.147c5.395-7.864,10.756-15.76,15.83-23.833c2.656-4.226,4.212-8.996,4.38-13.304  C644.667,123.971,626.796,112.744,611.226,119.79z M611.323,141.463c0.036-5.357,4.626-9.942,9.89-9.88  c5.205,0.061,9.683,4.604,9.72,9.86c0.037,5.32-4.538,9.979-9.798,9.978C615.846,151.419,611.287,146.792,611.323,141.463z"></path>	<path style="fill:#FFFFFF;" d="M165.41,329.125c-5.354,2.423-9.457,9.262-5.871,16.779c2.479,5.197,5.757,9.875,9.277,14.393  c1.201,1.542,2.523,1.559,3.646-0.077c2.837-4.136,5.657-8.289,8.326-12.535c1.397-2.222,2.215-4.731,2.304-6.997  C182.998,331.324,173.599,325.419,165.41,329.125z M165.461,340.524c0.019-2.817,2.433-5.229,5.202-5.196  c2.737,0.032,5.093,2.421,5.112,5.186c0.02,2.798-2.387,5.248-5.153,5.248C167.84,345.76,165.443,343.327,165.461,340.524z"></path>	<path style="fill:#FFFFFF;" d="M76.452,56.911c-5.354,2.423-9.457,9.262-5.871,16.779c2.479,5.197,5.757,9.875,9.277,14.393  c1.201,1.542,2.523,1.559,3.646-0.077c2.837-4.136,5.657-8.289,8.326-12.535c1.397-2.222,2.215-4.731,2.304-6.997  C94.04,59.11,84.641,53.205,76.452,56.911z M76.503,68.31c0.019-2.817,2.433-5.229,5.202-5.196  c2.737,0.032,5.093,2.421,5.112,5.186c0.02,2.798-2.387,5.248-5.153,5.248C78.882,73.546,76.485,71.113,76.503,68.31z"></path>	<path style="fill:#FFFFFF;" d="M309.484,238.63c-5.354,2.423-9.457,9.262-5.871,16.779c2.479,5.197,5.757,9.875,9.277,14.393  c1.201,1.542,2.523,1.559,3.646-0.077c2.837-4.136,5.657-8.289,8.326-12.534c1.397-2.222,2.215-4.731,2.304-6.997  C327.072,240.829,317.673,234.924,309.484,238.63z M309.535,250.029c0.019-2.817,2.433-5.229,5.202-5.196  c2.737,0.032,5.092,2.421,5.112,5.186c0.02,2.798-2.387,5.248-5.153,5.248C311.914,255.265,309.516,252.831,309.535,250.029z"></path>	<path style="fill:#FFFFFF;" d="M493.223,320.272c-5.354,2.423-9.457,9.262-5.871,16.779c2.479,5.197,5.757,9.875,9.277,14.393  c1.201,1.542,2.523,1.559,3.646-0.077c2.837-4.136,5.657-8.289,8.326-12.534c1.397-2.222,2.215-4.731,2.304-6.997  C510.811,322.471,501.412,316.567,493.223,320.272z M493.274,331.671c0.019-2.817,2.433-5.229,5.202-5.196  c2.737,0.032,5.092,2.421,5.112,5.186c0.02,2.798-2.387,5.248-5.153,5.248C495.653,336.907,493.256,334.474,493.274,331.671z"></path>	<path style="fill:#FFFFFF;" d="M375.771,47.764c-3.781,1.711-6.679,6.541-4.146,11.849c1.751,3.67,4.066,6.974,6.552,10.164  c0.848,1.089,1.782,1.101,2.575-0.054c2.004-2.921,3.995-5.853,5.88-8.852c0.987-1.569,1.564-3.341,1.627-4.941  C388.191,49.317,381.554,45.147,375.771,47.764z M375.807,55.814c0.014-1.99,1.718-3.693,3.673-3.67  c1.933,0.023,3.596,1.71,3.61,3.662c0.014,1.976-1.686,3.706-3.639,3.706C377.487,59.511,375.794,57.793,375.807,55.814z"></path>	<path style="fill:#FFFFFF;" d="M706.863,297.291c-3.781,1.711-6.679,6.541-4.146,11.849c1.751,3.67,4.066,6.974,6.552,10.164  c0.848,1.089,1.782,1.101,2.575-0.054c2.004-2.921,3.995-5.853,5.88-8.852c0.987-1.569,1.564-3.341,1.627-4.941  C719.284,298.844,712.646,294.674,706.863,297.291z M706.9,305.341c0.014-1.99,1.718-3.693,3.673-3.67  c1.933,0.023,3.596,1.71,3.61,3.662c0.014,1.976-1.686,3.706-3.639,3.706C708.579,309.038,706.886,307.32,706.9,305.341z"></path>	<path style="fill:#FFFFFF;" d="M286.64,41.126c-3.781,1.711-6.679,6.541-4.146,11.849c1.751,3.67,4.066,6.974,6.552,10.164  c0.848,1.089,1.782,1.101,2.575-0.054c2.004-2.921,3.995-5.853,5.88-8.852c0.987-1.569,1.564-3.341,1.627-4.941  C299.06,42.678,292.423,38.509,286.64,41.126z M286.676,49.175c0.014-1.99,1.718-3.693,3.673-3.67  c1.933,0.023,3.596,1.71,3.61,3.662c0.014,1.976-1.686,3.706-3.639,3.706C288.356,52.873,286.663,51.155,286.676,49.175z"></path>	<path style="fill:#FFFFFF;" d="M188.192,31.153c-3.781,1.711-6.679,6.541-4.146,11.849c1.751,3.67,4.066,6.974,6.552,10.164  c0.848,1.089,1.782,1.101,2.575-0.054c2.004-2.921,3.995-5.853,5.88-8.852c0.987-1.569,1.564-3.341,1.627-4.941  C200.612,32.706,193.975,28.536,188.192,31.153z M188.228,39.202c0.014-1.99,1.718-3.693,3.673-3.67  c1.933,0.023,3.596,1.71,3.61,3.662c0.014,1.976-1.686,3.706-3.639,3.706C189.908,42.9,188.215,41.182,188.228,39.202z"></path>	<path style="fill:#FFFFFF;" d="M241.823,143.254c-5.354,2.423-9.457,9.262-5.871,16.779c2.479,5.197,5.757,9.875,9.277,14.393  c1.201,1.542,2.523,1.559,3.646-0.077c2.837-4.136,5.657-8.289,8.326-12.535c1.397-2.222,2.215-4.731,2.304-6.997  C259.41,145.453,250.011,139.548,241.823,143.254z M241.874,154.653c0.019-2.817,2.433-5.229,5.202-5.196  c2.737,0.032,5.093,2.421,5.112,5.186c0.02,2.798-2.387,5.248-5.153,5.248C244.253,159.889,241.855,157.455,241.874,154.653z"></path></g></svg>